<svg width="38" height="38" viewBox="0 0 38 38" fill="none" xmlns="http://www.w3.org/2000/svg">
<path d="M19 0.25C29.3556 0.25 37.75 8.64438 37.75 19C37.75 29.3556 29.3556 37.75 19 37.75C8.64438 37.75 0.25 29.3556 0.25 19C0.25 8.64438 8.64438 0.25 19 0.25ZM19 9.625C18.5408 9.62506 18.0975 9.79367 17.7543 10.0988C17.4111 10.404 17.1919 10.8245 17.1381 11.2806L17.125 11.5V17.125H11.5C11.0221 17.1255 10.5624 17.3085 10.2149 17.6366C9.86743 17.9647 9.65831 18.413 9.6303 18.8901C9.6023 19.3672 9.75751 19.837 10.0642 20.2034C10.371 20.5699 10.8061 20.8054 11.2806 20.8619L11.5 20.875H17.125V26.5C17.1255 26.9779 17.3085 27.4376 17.6366 27.7851C17.9647 28.1326 18.413 28.3417 18.8901 28.3697C19.3672 28.3977 19.837 28.2425 20.2034 27.9358C20.5699 27.629 20.8054 27.1939 20.8619 26.7194L20.875 26.5V20.875H26.5C26.9779 20.8745 27.4376 20.6915 27.7851 20.3634C28.1326 20.0353 28.3417 19.587 28.3697 19.1099C28.3977 18.6328 28.2425 18.163 27.9358 17.7966C27.629 17.4301 27.1939 17.1946 26.7194 17.1381L26.5 17.125H20.875V11.5C20.875 11.0027 20.6775 10.5258 20.3258 10.1742C19.9742 9.82254 19.4973 9.625 19 9.625Z" fill="#D1D1D1"/>
</svg>
