<svg width="151" height="150" viewBox="0 0 151 150" fill="none" xmlns="http://www.w3.org/2000/svg">
<circle cx="75.2314" cy="75" r="70" fill="#D9D9D9" stroke="#101010" stroke-width="10"/>
<g clip-path="url(#clip0_1122_5389)">
<path d="M85.2314 80C88.4526 80.0002 91.5493 81.2439 93.8759 83.4716C96.2024 85.6994 97.5791 88.7394 97.7189 91.9575L97.7314 92.5V95C97.7318 96.2614 97.2554 97.4764 96.3977 98.4014C95.54 99.3263 94.3643 99.8929 93.1064 99.9875L92.7314 100H57.7314C56.47 100 55.255 99.524 54.3301 98.6663C53.4051 97.8085 52.8386 96.6329 52.7439 95.375L52.7314 95V92.5C52.7316 89.2788 53.9753 86.1821 56.2031 83.8556C58.4309 81.529 61.4708 80.1523 64.6889 80.0125L65.2314 80H85.2314ZM75.2314 50C78.5467 50 81.7261 51.317 84.0703 53.6612C86.4145 56.0054 87.7314 59.1848 87.7314 62.5C87.7314 65.8152 86.4145 68.9946 84.0703 71.3388C81.7261 73.683 78.5467 75 75.2314 75C71.9162 75 68.7368 73.683 66.3926 71.3388C64.0484 68.9946 62.7314 65.8152 62.7314 62.5C62.7314 59.1848 64.0484 56.0054 66.3926 53.6612C68.7368 51.317 71.9162 50 75.2314 50Z" fill="#101010"/>
</g>
<defs>
<clipPath id="clip0_1122_5389">
<rect width="60" height="60" fill="white" transform="translate(45.2314 45)"/>
</clipPath>
</defs>
</svg>
