<svg width="62" height="55" viewBox="0 0 62 55" fill="none" xmlns="http://www.w3.org/2000/svg">
<path d="M51.4168 28.8223V33.8332C51.4168 39.248 49.2657 44.4411 45.4369 48.2699C41.608 52.0988 36.4149 54.2498 31.0001 54.2498C25.5853 54.2498 20.3922 52.0988 16.5633 48.2699C12.7345 44.4411 10.5834 39.248 10.5834 33.8332V28.8223L29.1305 37.5928C29.7151 37.869 30.3536 38.0123 31.0001 38.0123C31.6466 38.0123 32.2852 37.869 32.8697 37.5928L51.4168 28.8223ZM32.8697 0.909835L59.353 13.434C61.4939 14.4432 61.7651 17.2315 60.1668 18.6928V30.9165C60.1668 31.6901 59.8595 32.4319 59.3125 32.9789C58.7655 33.5259 58.0237 33.8332 57.2501 33.8332C56.4766 33.8332 55.7347 33.5259 55.1877 32.9789C54.6407 32.4319 54.3334 31.6901 54.3334 30.9165V21.6123L32.8697 31.7623C32.2852 32.0386 31.6466 32.1819 31.0001 32.1819C30.3536 32.1819 29.7151 32.0386 29.1305 31.7623L2.64719 19.2353C2.09842 18.9751 1.63473 18.5646 1.31004 18.0514C0.985351 17.5382 0.812988 16.9434 0.812988 16.3361C0.812988 15.7288 0.985351 15.134 1.31004 14.6208C1.63473 14.1075 2.09842 13.697 2.64719 13.4369L29.1305 0.912753C29.7151 0.636463 30.3536 0.493164 31.0001 0.493164C31.6466 0.493164 32.2852 0.636463 32.8697 0.912753V0.909835Z" fill="#888888"/>
</svg>
