<svg width="60" height="54" viewBox="0 0 60 54" fill="none" xmlns="http://www.w3.org/2000/svg">
<path d="M35.8335 0.75C38.1541 0.75 40.3797 1.67187 42.0207 3.31282C43.6616 4.95376 44.5835 7.17936 44.5835 9.5H53.3335C54.8806 9.5 56.3643 10.1146 57.4583 11.2085C58.5522 12.3025 59.1668 13.7862 59.1668 15.3333V47.4167C59.1668 48.9638 58.5522 50.4475 57.4583 51.5415C56.3643 52.6354 54.8806 53.25 53.3335 53.25H6.66683C5.11973 53.25 3.636 52.6354 2.54204 51.5415C1.44808 50.4475 0.833496 48.9638 0.833496 47.4167V15.3333C0.833496 13.7862 1.44808 12.3025 2.54204 11.2085C3.636 10.1146 5.11973 9.5 6.66683 9.5H15.4168C15.4168 7.17936 16.3387 4.95376 17.9796 3.31282C19.6206 1.67187 21.8462 0.75 24.1668 0.75H35.8335ZM50.4168 21.1667H9.5835C8.8401 21.1675 8.12507 21.4521 7.5845 21.9625C7.04394 22.4728 6.71864 23.1703 6.67508 23.9124C6.63151 24.6545 6.87296 25.3853 7.3501 25.9553C7.82724 26.5254 8.50405 26.8918 9.24225 26.9796L9.5835 27H27.0835V29.9167C27.0843 30.6601 27.369 31.3751 27.8793 31.9157C28.3896 32.4562 29.0871 32.7815 29.8292 32.8251C30.5714 32.8687 31.3021 32.6272 31.8722 32.1501C32.4422 31.6729 32.8086 30.9961 32.8964 30.2579L32.9168 29.9167V27H50.4168C51.1602 26.9992 51.8753 26.7145 52.4158 26.2042C52.9564 25.6939 53.2817 24.9964 53.3252 24.2543C53.3688 23.5121 53.1274 22.7814 52.6502 22.2113C52.1731 21.6413 51.4963 21.2749 50.7581 21.1871L50.4168 21.1667ZM35.8335 6.58333H24.1668C23.4524 6.58343 22.7629 6.84571 22.2291 7.32042C21.6952 7.79513 21.3542 8.44927 21.2706 9.15875L21.2502 9.5H38.7502C38.7501 8.78561 38.4878 8.0961 38.0131 7.56225C37.5384 7.0284 36.8842 6.68733 36.1747 6.60375L35.8335 6.58333Z" fill="#888888"/>
</svg>
