<svg width="46" height="50" viewBox="0 0 46 50" fill="none" xmlns="http://www.w3.org/2000/svg">
<path d="M33.3198 30C36.541 30.0002 39.6377 31.2439 41.9643 33.4716C44.2908 35.6994 45.6675 38.7394 45.8073 41.9575L45.8198 42.5V45C45.8202 46.2614 45.3438 47.4764 44.4861 48.4014C43.6284 49.3263 42.4527 49.8929 41.1948 49.9875L40.8198 50H5.81982C4.55838 50.0004 3.34341 49.524 2.41845 48.6663C1.4935 47.8085 0.926933 46.6329 0.832325 45.375L0.819824 45V42.5C0.82001 39.2788 2.06368 36.1821 4.29147 33.8556C6.51927 31.529 9.5592 30.1523 12.7773 30.0125L13.3198 30H33.3198ZM23.3198 0C26.635 0 29.8145 1.31696 32.1587 3.66116C34.5029 6.00537 35.8198 9.18479 35.8198 12.5C35.8198 15.8152 34.5029 18.9946 32.1587 21.3388C29.8145 23.683 26.635 25 23.3198 25C20.0046 25 16.8252 23.683 14.481 21.3388C12.1368 18.9946 10.8198 15.8152 10.8198 12.5C10.8198 9.18479 12.1368 6.00537 14.481 3.66116C16.8252 1.31696 20.0046 0 23.3198 0Z" fill="#101010"/>
</svg>
