<svg width="34" height="35" viewBox="0 0 34 35" fill="none" xmlns="http://www.w3.org/2000/svg">
<path fill-rule="evenodd" clip-rule="evenodd" d="M17 0.833374C7.79498 0.833374 0.333313 8.29504 0.333313 17.5C0.333313 26.705 7.79498 34.1667 17 34.1667C26.205 34.1667 33.6666 26.705 33.6666 17.5C33.6666 8.29504 26.205 0.833374 17 0.833374ZM11.1666 13.3334C11.1666 12.5673 11.3175 11.8088 11.6107 11.1011C11.9038 10.3933 12.3335 9.75026 12.8752 9.20858C13.4169 8.66691 14.0599 8.23723 14.7677 7.94408C15.4754 7.65092 16.2339 7.50004 17 7.50004C17.766 7.50004 18.5246 7.65092 19.2323 7.94408C19.94 8.23723 20.5831 8.66691 21.1248 9.20858C21.6664 9.75026 22.0961 10.3933 22.3893 11.1011C22.6824 11.8088 22.8333 12.5673 22.8333 13.3334C22.8333 14.8805 22.2187 16.3642 21.1248 17.4582C20.0308 18.5521 18.5471 19.1667 17 19.1667C15.4529 19.1667 13.9692 18.5521 12.8752 17.4582C11.7812 16.3642 11.1666 14.8805 11.1666 13.3334ZM27.43 25.8067C26.1824 27.3761 24.5963 28.6433 22.7903 29.5137C20.9842 30.3841 19.0048 30.8352 17 30.8334C14.9951 30.8352 13.0157 30.3841 11.2097 29.5137C9.40364 28.6433 7.81758 27.3761 6.56998 25.8067C9.27165 23.8684 12.9583 22.5 17 22.5C21.0416 22.5 24.7283 23.8684 27.43 25.8067Z" fill="white"/>
</svg>
