<svg width="20" height="20" viewBox="0 0 20 20" fill="none" xmlns="http://www.w3.org/2000/svg">
<g clip-path="url(#clip0_418_2138)">
<path fill-rule="evenodd" clip-rule="evenodd" d="M6.61679 10.8833C6.3827 10.649 6.25122 10.3313 6.25122 10C6.25122 9.66875 6.3827 9.35104 6.61679 9.11667L11.3301 4.40167C11.5646 4.16728 11.8826 4.03565 12.2142 4.03573C12.3783 4.03577 12.5409 4.06814 12.6925 4.131C12.8442 4.19386 12.982 4.28597 13.098 4.40208C13.2141 4.51819 13.3061 4.65603 13.3689 4.80771C13.4317 4.9594 13.464 5.12196 13.464 5.28613C13.4639 5.4503 13.4316 5.61285 13.3687 5.7645C13.3058 5.91616 13.2137 6.05395 13.0976 6.17L9.26845 10L13.0985 13.83C13.2179 13.9453 13.3132 14.0831 13.3788 14.2356C13.4444 14.3881 13.4789 14.5521 13.4804 14.7181C13.4819 14.884 13.4504 15.0487 13.3876 15.2023C13.3248 15.356 13.2321 15.4956 13.1148 15.613C12.9975 15.7304 12.858 15.8233 12.7044 15.8862C12.5508 15.9491 12.3862 15.9808 12.2202 15.9795C12.0542 15.9781 11.8902 15.9437 11.7377 15.8783C11.5851 15.8128 11.4472 15.7177 11.3318 15.5983L6.61512 10.8833H6.61679Z" fill="currentColor"/>
</g>
<defs>
<clipPath id="clip0_418_2138">
<rect width="20" height="20" fill="currentColor"/>
</clipPath>
</defs>
</svg>
