<svg width="20" height="20" viewBox="0 0 20 20" fill="none" xmlns="http://www.w3.org/2000/svg">
<g clip-path="url(#clip0_451_2320)">
<path d="M14.9999 4.16667C15.2209 4.16667 15.4329 4.25446 15.5892 4.41074C15.7454 4.56702 15.8332 4.77899 15.8332 5V11.6667C15.8332 11.8877 15.7454 12.0996 15.5892 12.2559C15.4329 12.4122 15.2209 12.5 14.9999 12.5C14.7789 12.5 14.5669 12.4122 14.4107 12.2559C14.2544 12.0996 14.1666 11.8877 14.1666 11.6667V7.01167L5.87491 15.3033C5.71774 15.4551 5.50724 15.5391 5.28874 15.5372C5.07024 15.5353 4.86123 15.4477 4.70672 15.2932C4.55222 15.1387 4.46458 14.9297 4.46268 14.7112C4.46078 14.4927 4.54477 14.2822 4.69657 14.125L12.9882 5.83333H8.33324C8.11223 5.83333 7.90026 5.74554 7.74398 5.58925C7.5877 5.43297 7.49991 5.22101 7.49991 5C7.49991 4.77899 7.5877 4.56702 7.74398 4.41074C7.90026 4.25446 8.11223 4.16667 8.33324 4.16667H14.9999Z" fill="white"/>
</g>
<defs>
<clipPath id="clip0_451_2320">
<rect width="20" height="20" fill="white"/>
</clipPath>
</defs>
</svg>
