<svg width="20" height="20" viewBox="0 0 20 20" fill="none" xmlns="http://www.w3.org/2000/svg">
<g clip-path="url(#clip0_84_115)">
<path fill-rule="evenodd" clip-rule="evenodd" d="M10.8833 13.3833C10.6489 13.6174 10.3312 13.7489 9.99992 13.7489C9.66867 13.7489 9.35096 13.6174 9.11658 13.3833L4.40158 8.67C4.1672 8.4355 4.03557 8.1175 4.03564 7.78596C4.03572 7.45441 4.1675 7.13647 4.402 6.90208C4.6365 6.6677 4.9545 6.53607 5.28605 6.53614C5.61759 6.53622 5.93553 6.668 6.16992 6.9025L9.99992 10.7325L13.8299 6.9025C14.0656 6.67469 14.3813 6.54855 14.709 6.55124C15.0368 6.55393 15.3503 6.68524 15.5822 6.9169C15.8141 7.14855 15.9457 7.462 15.9487 7.78975C15.9517 8.11749 15.8258 8.43331 15.5983 8.66917L10.8841 13.3842L10.8833 13.3833Z" fill="white"/>
</g>
<defs>
<clipPath id="clip0_84_115">
<rect width="20" height="20" fill="white"/>
</clipPath>
</defs>
</svg>
