<svg width="20" height="20" viewBox="0 0 20 20" fill="none" xmlns="http://www.w3.org/2000/svg">
<g clip-path="url(#clip0_695_6386)">
<path fill-rule="evenodd" clip-rule="evenodd" d="M10.0001 11.7683L14.4192 16.1875C14.6537 16.422 14.9718 16.5537 15.3034 16.5537C15.635 16.5537 15.9531 16.422 16.1876 16.1875C16.4221 15.953 16.5538 15.635 16.5538 15.3033C16.5538 14.9717 16.4221 14.6537 16.1876 14.4192L11.7667 10L16.1867 5.58083C16.3028 5.46472 16.3948 5.32689 16.4576 5.17521C16.5204 5.02352 16.5527 4.86096 16.5527 4.69679C16.5526 4.53262 16.5203 4.37007 16.4574 4.21842C16.3946 4.06676 16.3024 3.92897 16.1863 3.81292C16.0702 3.69686 15.9324 3.60481 15.7807 3.54202C15.629 3.47924 15.4664 3.44694 15.3023 3.44698C15.1381 3.44702 14.9756 3.47939 14.8239 3.54225C14.6723 3.60511 14.5345 3.69722 14.4184 3.81333L10.0001 8.2325L5.58091 3.81333C5.46566 3.69389 5.32777 3.5986 5.1753 3.53302C5.02282 3.46744 4.85882 3.43288 4.69284 3.43136C4.52687 3.42984 4.36226 3.46139 4.20861 3.52417C4.05496 3.58694 3.91535 3.67969 3.79793 3.797C3.68051 3.91431 3.58763 4.05384 3.5247 4.20743C3.46178 4.36102 3.43008 4.5256 3.43144 4.69157C3.4328 4.85755 3.46721 5.02159 3.53264 5.17412C3.59808 5.32666 3.69324 5.46464 3.81258 5.58L8.23341 10L3.81341 14.42C3.69408 14.5354 3.59892 14.6733 3.53348 14.8259C3.46804 14.9784 3.43364 15.1425 3.43227 15.3084C3.43091 15.4744 3.46261 15.639 3.52554 15.7926C3.58846 15.9462 3.68134 16.0857 3.79876 16.203C3.91618 16.3203 4.05579 16.4131 4.20944 16.4758C4.36309 16.5386 4.5277 16.5702 4.69368 16.5686C4.85965 16.5671 5.02366 16.5326 5.17613 16.467C5.32861 16.4014 5.46649 16.3061 5.58174 16.1867L10.0001 11.7683Z" fill="currentColor"/>
</g>
<defs>
<clipPath id="clip0_695_6386">
<rect width="20" height="20" fill="currentColor"/>
</clipPath>
</defs>
</svg>
