<svg width="20" height="20" viewBox="0 0 20 20" fill="none" xmlns="http://www.w3.org/2000/svg">
<g clip-path="url(#clip0_153_536)">
<path fill-rule="evenodd" clip-rule="evenodd" d="M8.82164 1.75C9.11663 1.45539 9.51132 1.28204 9.92785 1.26415C10.3444 1.24625 10.7525 1.38511 11.0716 1.65333L11.1783 1.75083L12.7616 3.33333H15C15.4203 3.33341 15.8251 3.49231 16.1332 3.7782C16.4414 4.06408 16.6301 4.45585 16.6616 4.875L16.6666 5V7.23833L18.25 8.82167C18.5448 9.1167 18.7183 9.51156 18.7362 9.92828C18.7541 10.345 18.6151 10.7533 18.3466 11.0725L18.2491 11.1783L16.6658 12.7617V15C16.6659 15.4205 16.5071 15.8255 16.2212 16.1338C15.9353 16.4421 15.5434 16.631 15.1241 16.6625L15 16.6667H12.7625L11.1791 18.25C10.8841 18.5448 10.4892 18.7183 10.0725 18.7362C9.65581 18.7541 9.24753 18.6151 8.92831 18.3467L8.82247 18.25L7.23914 16.6667H4.99998C4.57949 16.6668 4.1745 16.508 3.86619 16.2221C3.55787 15.9362 3.36901 15.5443 3.33748 15.125L3.33331 15V12.7617L1.74998 11.1783C1.45514 10.8833 1.28164 10.4884 1.26374 10.0717C1.24585 9.655 1.38485 9.24672 1.65331 8.9275L1.74998 8.82167L3.33331 7.23833V5C3.33339 4.57966 3.49228 4.17488 3.77817 3.86674C4.06406 3.5586 4.45582 3.36986 4.87498 3.33833L4.99998 3.33333H7.23831L8.82164 1.75ZM12.5658 7.48583L9.02914 11.0225L7.55581 9.54916C7.39944 9.39291 7.18741 9.30517 6.96635 9.30525C6.74529 9.30533 6.53332 9.39322 6.37706 9.54958C6.2208 9.70595 6.13306 9.91798 6.13314 10.139C6.13322 10.3601 6.22111 10.5721 6.37748 10.7283L8.38081 12.7317C8.46593 12.8168 8.56701 12.8844 8.67825 12.9305C8.78949 12.9766 8.90873 13.0003 9.02914 13.0003C9.14956 13.0003 9.26879 12.9766 9.38003 12.9305C9.49128 12.8844 9.59235 12.8168 9.67747 12.7317L13.7441 8.66417C13.8959 8.507 13.9799 8.29649 13.978 8.078C13.9761 7.8595 13.8885 7.65049 13.734 7.49598C13.5795 7.34148 13.3705 7.25384 13.152 7.25194C12.9335 7.25004 12.723 7.33403 12.5658 7.48583Z" fill="white"/>
</g>
<defs>
<clipPath id="clip0_153_536">
<rect width="20" height="20" fill="white"/>
</clipPath>
</defs>
</svg>
