<svg width="20" height="20" viewBox="0 0 20 20" fill="none" xmlns="http://www.w3.org/2000/svg">
<g clip-path="url(#clip0_775_1540)">
<path d="M14.4192 12.4533C14.1848 12.219 13.867 12.0874 13.5355 12.0874C13.204 12.0874 12.8862 12.219 12.6517 12.4533L11.2501 13.855V7.5C11.2501 7.16848 11.1184 6.85054 10.884 6.61612C10.6495 6.3817 10.3316 6.25 10.0001 6.25C9.66856 6.25 9.35062 6.3817 9.1162 6.61612C8.88178 6.85054 8.75008 7.16848 8.75008 7.5V13.855L7.34841 12.4533C7.11403 12.2188 6.79609 12.0871 6.46454 12.087C6.13299 12.0869 5.81499 12.2185 5.5805 12.4529C5.346 12.6873 5.21422 13.0052 5.21414 13.3368C5.21406 13.6683 5.3457 13.9863 5.58008 14.2208L9.11592 17.7567C9.35032 17.991 9.66821 18.1227 9.99967 18.1227C10.3311 18.1227 10.649 17.991 10.8834 17.7567L14.4192 14.2208C14.6536 13.9864 14.7852 13.6685 14.7852 13.3371C14.7852 13.0056 14.6536 12.6877 14.4192 12.4533ZM4.16675 2.08333C3.83523 2.08333 3.51729 2.21503 3.28286 2.44945C3.04844 2.68387 2.91675 3.00181 2.91675 3.33333C2.91675 3.66485 3.04844 3.9828 3.28286 4.21722C3.51729 4.45164 3.83523 4.58333 4.16675 4.58333H15.8334C16.1649 4.58333 16.4829 4.45164 16.7173 4.21722C16.9517 3.9828 17.0834 3.66485 17.0834 3.33333C17.0834 3.00181 16.9517 2.68387 16.7173 2.44945C16.4829 2.21503 16.1649 2.08333 15.8334 2.08333H4.16675Z" fill="white"/>
</g>
<defs>
<clipPath id="clip0_775_1540">
<rect width="20" height="20" fill="white"/>
</clipPath>
</defs>
</svg>
