<svg width="20" height="20" viewBox="0 0 20 20" fill="none" xmlns="http://www.w3.org/2000/svg">
<g clip-path="url(#clip0_703_2195)">
<path fill-rule="evenodd" clip-rule="evenodd" d="M16.7759 2.63333C16.307 2.16466 15.6713 1.90137 15.0084 1.90137C14.3454 1.90137 13.7097 2.16466 13.2409 2.63333L12.6517 3.22333L16.7767 7.34833L17.365 6.75917C17.5972 6.52702 17.7814 6.2514 17.9071 5.94806C18.0327 5.64472 18.0974 5.31959 18.0974 4.99125C18.0974 4.66291 18.0327 4.33779 17.9071 4.03444C17.7814 3.7311 17.5972 3.45549 17.365 3.22333L16.7759 2.63333ZM15.5975 8.52667L11.4725 4.40167L3.89752 11.9775C3.73176 12.1433 3.61596 12.3524 3.56335 12.5808L2.70585 16.2933C2.6739 16.4312 2.67757 16.5748 2.7165 16.7109C2.75544 16.8469 2.82836 16.9707 2.9284 17.0708C3.02844 17.1708 3.15231 17.2437 3.28832 17.2827C3.42434 17.3216 3.56803 17.3253 3.70585 17.2933L7.41919 16.4367C7.64736 16.3839 7.85612 16.2681 8.02169 16.1025L15.5975 8.52667Z" fill="white"/>
</g>
<defs>
<clipPath id="clip0_703_2195">
<rect width="20" height="20" fill="white"/>
</clipPath>
</defs>
</svg>
