<svg width="20" height="20" viewBox="0 0 20 20" fill="none" xmlns="http://www.w3.org/2000/svg">
<path d="M15.8332 10.235V11.6667C15.8332 13.2138 15.2186 14.6975 14.1247 15.7915C13.0307 16.8854 11.547 17.5 9.99989 17.5C8.4528 17.5 6.96906 16.8854 5.8751 15.7915C4.78114 14.6975 4.16656 13.2138 4.16656 11.6667V10.235L9.46572 12.7408C9.63274 12.8198 9.81516 12.8607 9.99989 12.8607C10.1846 12.8607 10.367 12.8198 10.5341 12.7408L15.8332 10.235ZM10.5341 2.26L18.1007 5.83833C18.7124 6.12667 18.7899 6.92333 18.3332 7.34083V10.8333C18.3332 11.0543 18.2454 11.2663 18.0891 11.4226C17.9329 11.5789 17.7209 11.6667 17.4999 11.6667C17.2789 11.6667 17.0669 11.5789 16.9106 11.4226C16.7544 11.2663 16.6666 11.0543 16.6666 10.8333V8.175L10.5341 11.075C10.367 11.1539 10.1846 11.1949 9.99989 11.1949C9.81516 11.1949 9.63274 11.1539 9.46572 11.075L1.89906 7.49583C1.74226 7.42152 1.60978 7.30423 1.51702 7.1576C1.42425 7.01096 1.375 6.84101 1.375 6.6675C1.375 6.49399 1.42425 6.32404 1.51702 6.1774C1.60978 6.03077 1.74226 5.91348 1.89906 5.83917L9.46572 2.26083C9.63274 2.18189 9.81516 2.14095 9.99989 2.14095C10.1846 2.14095 10.367 2.18189 10.5341 2.26083V2.26Z" fill="currentColor"/>
</svg>
