<svg width="20" height="20" viewBox="0 0 20 20" fill="none" xmlns="http://www.w3.org/2000/svg">
<g clip-path="url(#clip0_96_349)">
<path d="M11.0824 2.62333L18.2774 15.085C18.3871 15.275 18.4449 15.4906 18.4449 15.71C18.4449 15.9294 18.3871 16.145 18.2774 16.335C18.1677 16.525 18.0099 16.6828 17.8199 16.7925C17.6299 16.9022 17.4143 16.96 17.1949 16.96H2.8049C2.58548 16.96 2.36993 16.9022 2.17991 16.7925C1.98989 16.6828 1.8321 16.525 1.72239 16.335C1.61269 16.145 1.55493 15.9294 1.55493 15.71C1.55493 15.4906 1.61269 15.275 1.7224 15.085L8.9174 2.62333C9.39823 1.79 10.6007 1.79 11.0824 2.62333ZM9.9999 12.5C9.77889 12.5 9.56693 12.5878 9.41064 12.7441C9.25436 12.9004 9.16657 13.1123 9.16657 13.3333C9.16657 13.5543 9.25436 13.7663 9.41064 13.9226C9.56693 14.0789 9.77889 14.1667 9.9999 14.1667C10.2209 14.1667 10.4329 14.0789 10.5892 13.9226C10.7454 13.7663 10.8332 13.5543 10.8332 13.3333C10.8332 13.1123 10.7454 12.9004 10.5892 12.7441C10.4329 12.5878 10.2209 12.5 9.9999 12.5ZM9.9999 6.66667C9.79579 6.66669 9.59879 6.74163 9.44626 6.87726C9.29373 7.0129 9.19628 7.19979 9.1724 7.4025L9.16657 7.5V10.8333C9.1668 11.0457 9.24813 11.25 9.39394 11.4045C9.53975 11.5589 9.73903 11.6519 9.95106 11.6643C10.1631 11.6768 10.3719 11.6078 10.5348 11.4714C10.6976 11.3351 10.8023 11.1417 10.8274 10.9308L10.8332 10.8333V7.5C10.8332 7.27899 10.7454 7.06702 10.5892 6.91074C10.4329 6.75446 10.2209 6.66667 9.9999 6.66667Z" fill="white"/>
</g>
<defs>
<clipPath id="clip0_96_349">
<rect width="20" height="20" fill="white"/>
</clipPath>
</defs>
</svg>
