<svg width="386" height="140" viewBox="0 0 386 140" fill="none" xmlns="http://www.w3.org/2000/svg">
    <path d="M90.97 87.51H108.96V105.64H90.97V126.5H67.38V105.64H0.039978V88.77L60.87 21.5H90.97V87.51ZM67.38 40.82L25.24 87.51H67.38V40.82Z" fill="white"/>
    <path fill-rule="evenodd" clip-rule="evenodd" d="M193.75 11.6667C206.035 11.6667 217.433 15.4583 226.825 21.945C225.839 23.3683 224.783 24.9725 223.751 26.6933L223.191 27.65L222.007 29.7792C219.597 34.3117 217.083 40.4075 217.083 46.6667C217.083 58.1583 226.201 70 240.417 70C244.803 70 248.706 68.8742 252.007 66.9725C252.06 67.9758 252.083 68.985 252.083 70C252.083 102.217 225.967 128.333 193.75 128.333C161.532 128.333 135.417 102.217 135.417 70C135.417 37.7825 161.532 11.6667 193.75 11.6667ZM193.75 81.6667H176.25C174.703 81.6667 173.219 82.2812 172.125 83.3752C171.031 84.4692 170.417 85.9529 170.417 87.5C170.417 89.0471 171.031 90.5308 172.125 91.6248C173.219 92.7188 174.703 93.3333 176.25 93.3333H193.75C195.297 93.3333 196.781 92.7188 197.875 91.6248C198.969 90.5308 199.583 89.0471 199.583 87.5C199.583 85.9529 198.969 84.4692 197.875 83.3752C196.781 82.2812 195.297 81.6667 193.75 81.6667ZM176.25 58.3333H158.75C157.203 58.3333 155.719 58.9479 154.625 60.0419C153.531 61.1358 152.917 62.6196 152.917 64.1667C152.917 65.7138 153.531 67.1975 154.625 68.2915C155.719 69.3854 157.203 70 158.75 70H176.25C177.797 70 179.281 69.3854 180.375 68.2915C181.469 67.1975 182.083 65.7138 182.083 64.1667C182.083 62.6196 181.469 61.1358 180.375 60.0419C179.281 58.9479 177.797 58.3333 176.25 58.3333ZM211.25 58.3333H193.75C192.203 58.3333 190.719 58.9479 189.625 60.0419C188.531 61.1358 187.917 62.6196 187.917 64.1667C187.917 65.7138 188.531 67.1975 189.625 68.2915C190.719 69.3854 192.203 70 193.75 70H211.25C212.797 70 214.281 69.3854 215.375 68.2915C216.469 67.1975 217.083 65.7138 217.083 64.1667C217.083 62.6196 216.469 61.1358 215.375 60.0419C214.281 58.9479 212.797 58.3333 211.25 58.3333ZM240.708 23.6833L242.097 25.4333L243.292 27.02C246.746 31.7333 252.083 40.0867 252.083 46.6667C252.083 52.5 247.434 58.3333 240.417 58.3333C233.399 58.3333 228.75 52.5 228.75 46.6667C228.75 41.7375 231.754 35.805 234.712 31.15L235.966 29.2483L237.162 27.5392L238.252 26.0633L239.553 24.3833L240.125 23.6833C240.16 23.6396 240.204 23.6042 240.255 23.5799C240.305 23.5556 240.361 23.543 240.417 23.543C240.473 23.543 240.528 23.5556 240.578 23.5799C240.629 23.6042 240.673 23.6396 240.708 23.6833Z" fill="#EDD342"/>
    <path d="M367.97 87.51H385.96V105.64H367.97V126.5H344.38V105.64H277.04V88.77L337.87 21.5H367.97V87.51ZM344.38 40.82L302.24 87.51H344.38V40.82Z" fill="white"/>
</svg>
