<svg width="20" height="20" viewBox="0 0 20 20" fill="none" xmlns="http://www.w3.org/2000/svg">
<g clip-path="url(#clip0_96_404)">
<path fill-rule="evenodd" clip-rule="evenodd" d="M11.1784 2.33917L17.66 8.82167C17.9725 9.13421 18.148 9.55806 18.148 10C18.148 10.4419 17.9725 10.8658 17.66 11.1783L11.1784 17.66C10.8658 17.9725 10.442 18.148 10 18.148C9.55809 18.148 9.13424 17.9725 8.82169 17.66L2.34003 11.1783C2.02758 10.8658 1.85205 10.4419 1.85205 10C1.85205 9.55806 2.02758 9.13421 2.34003 8.82167L8.82169 2.33917C9.13424 2.02671 9.55809 1.85119 10 1.85119C10.442 1.85119 10.8658 2.02671 11.1784 2.33917ZM10.0017 12.5C9.78915 12.4998 9.58457 12.5808 9.4298 12.7265C9.27503 12.8722 9.18177 13.0715 9.1691 13.2837C9.15643 13.4958 9.22531 13.7048 9.36165 13.8679C9.49798 14.0309 9.69147 14.1357 9.90253 14.1608L10.0025 14.1667C10.2235 14.1667 10.4355 14.0789 10.5918 13.9226C10.7481 13.7663 10.8359 13.5543 10.8359 13.3333C10.8359 13.1123 10.7481 12.9004 10.5918 12.7441C10.4355 12.5878 10.2235 12.5 10.0025 12.5H10.0017ZM10 6.66667C9.83924 6.66659 9.68007 6.69882 9.53198 6.76146C9.38389 6.8241 9.2499 6.91586 9.13796 7.03129C9.02603 7.14672 8.93843 7.28347 8.88038 7.43342C8.82233 7.58337 8.795 7.74345 8.80003 7.90417L8.80836 8.01667L9.17336 10.9367C9.19743 11.1301 9.28856 11.309 9.43091 11.4423C9.57326 11.5755 9.75782 11.6546 9.95245 11.6658C10.1471 11.677 10.3395 11.6196 10.4962 11.5036C10.6529 11.3875 10.7639 11.2203 10.81 11.0308L10.8267 10.9367L11.1917 8.01667C11.2128 7.84768 11.1978 7.67614 11.1476 7.51341C11.0974 7.35068 11.0131 7.20049 10.9004 7.07282C10.7877 6.94514 10.6492 6.8429 10.4939 6.77288C10.3387 6.70285 10.1703 6.66665 10 6.66667Z" fill="white"/>
</g>
<defs>
<clipPath id="clip0_96_404">
<rect width="20" height="20" fill="white"/>
</clipPath>
</defs>
</svg>
