<svg width="370" height="136" viewBox="0 0 370 136" fill="none" xmlns="http://www.w3.org/2000/svg">
    <path d="M183.621 4.36668C184.132 4.36675 184.624 4.55409 185.005 4.89317C185.387 5.23225 185.63 5.69949 185.69 6.20626L185.705 6.45001V12.7H189.871C190.922 12.6997 191.935 13.0967 192.706 13.8115C193.477 14.5262 193.949 15.5059 194.027 16.5542L194.038 16.8667V27.2833C194.038 30.5175 192.785 33.6258 190.541 35.9552C188.298 38.2846 185.239 39.6537 182.007 39.775L181.538 39.7833H173.205C169.97 39.7835 166.862 38.5301 164.533 36.2865C162.203 34.043 160.834 30.9839 160.713 27.7521L160.705 27.2833V16.8667C160.704 15.8155 161.101 14.803 161.816 14.0322C162.531 13.2614 163.511 12.7893 164.559 12.7104L164.871 12.7H169.038V6.45001C169.039 5.91901 169.242 5.40828 169.606 5.02216C169.971 4.63604 170.469 4.40369 170.999 4.37257C171.529 4.34145 172.051 4.51392 172.458 4.85473C172.866 5.19554 173.127 5.67898 173.19 6.20626L173.205 6.45001V12.7H181.538V6.45001C181.538 5.89748 181.757 5.36757 182.148 4.97687C182.539 4.58617 183.069 4.36668 183.621 4.36668Z" fill="#EDD342"/>
    <path d="M58.5313 63.98C67.3979 63.98 75.0746 65.4733 81.5612 68.46C88.0479 71.4467 93.0179 75.6 96.4713 80.92C99.9246 86.1933 101.651 92.2133 101.651 98.98C101.651 106.12 99.6446 112.49 95.6313 118.09C91.6179 123.643 85.8779 127.983 78.4113 131.11C70.9446 134.237 62.1946 135.8 52.1613 135.8C42.3613 135.8 33.7046 134.353 26.1913 131.46C18.6779 128.52 12.7513 124.507 8.41125 119.42C4.07125 114.333 1.52792 108.593 0.78125 102.2H24.5113C25.5846 106.82 28.5246 110.46 33.3312 113.12C38.1846 115.78 44.4613 117.11 52.1613 117.11C57.3879 117.11 61.9379 116.387 65.8113 114.94C69.6846 113.447 72.6479 111.323 74.7013 108.57C76.8013 105.817 77.8512 102.597 77.8512 98.91C77.8512 95.27 76.9179 92.0967 75.0513 89.39C73.2313 86.6833 70.4779 84.5833 66.7913 83.09C63.1513 81.5967 58.6946 80.85 53.4213 80.85C47.1213 80.85 41.6379 81.8533 36.9713 83.86C32.3046 85.82 28.4546 88.3167 25.4213 91.35H5.19125L13.8713 28.7H93.3213V46.97H30.1113L26.1213 74.48C30.0413 71.26 34.7079 68.7167 40.1213 66.85C45.5813 64.9367 51.7179 63.98 58.5313 63.98Z" fill="white"/>
    <path d="M177.813 135.8C166.24 135.8 156.137 133.537 147.503 129.01C138.87 124.483 132.22 118.113 127.553 109.9C122.887 101.64 120.553 92.0733 120.553 81.2C120.553 70.3267 122.887 60.7833 127.553 52.57C132.22 44.31 138.87 37.9167 147.503 33.39C156.137 28.8633 166.24 26.6 177.813 26.6C189.34 26.6 199.397 28.8633 207.983 33.39C216.617 37.9167 223.267 44.31 227.933 52.57C232.6 60.7833 234.933 70.3267 234.933 81.2C234.933 92.0733 232.6 101.64 227.933 109.9C223.267 118.113 216.617 124.483 207.983 129.01C199.397 133.537 189.34 135.8 177.813 135.8ZM177.813 116.41C184.767 116.41 190.74 115.033 195.733 112.28C200.727 109.48 204.53 105.443 207.143 100.17C209.803 94.8967 211.133 88.5733 211.133 81.2C211.133 73.8267 209.803 67.5033 207.143 62.23C204.53 56.9567 200.727 52.9433 195.733 50.19C190.74 47.39 184.767 45.99 177.813 45.99C170.767 45.99 164.723 47.3667 159.683 50.12C154.69 52.8733 150.863 56.8867 148.203 62.16C145.59 67.4333 144.283 73.78 144.283 81.2C144.283 88.62 145.59 94.9667 148.203 100.24C150.863 105.513 154.69 109.527 159.683 112.28C164.723 115.033 170.767 116.41 177.813 116.41Z" fill="#EDD342"/>
    <path d="M312.099 135.8C300.525 135.8 290.422 133.537 281.789 129.01C273.155 124.483 266.505 118.113 261.839 109.9C257.172 101.64 254.839 92.0733 254.839 81.2C254.839 70.3267 257.172 60.7833 261.839 52.57C266.505 44.31 273.155 37.9167 281.789 33.39C290.422 28.8633 300.525 26.6 312.099 26.6C323.625 26.6 333.682 28.8633 342.269 33.39C350.902 37.9167 357.552 44.31 362.219 52.57C366.885 60.7833 369.219 70.3267 369.219 81.2C369.219 92.0733 366.885 101.64 362.219 109.9C357.552 118.113 350.902 124.483 342.269 129.01C333.682 133.537 323.625 135.8 312.099 135.8ZM312.099 116.41C319.052 116.41 325.025 115.033 330.019 112.28C335.012 109.48 338.815 105.443 341.429 100.17C344.089 94.8967 345.419 88.5733 345.419 81.2C345.419 73.8267 344.089 67.5033 341.429 62.23C338.815 56.9567 335.012 52.9433 330.019 50.19C325.025 47.39 319.052 45.99 312.099 45.99C305.052 45.99 299.009 47.3667 293.969 50.12C288.975 52.8733 285.149 56.8867 282.489 62.16C279.875 67.4333 278.569 73.78 278.569 81.2C278.569 88.62 279.875 94.9667 282.489 100.24C285.149 105.513 288.975 109.527 293.969 112.28C299.009 115.033 305.052 116.41 312.099 116.41Z" fill="white"/>
</svg>
