<svg width="20" height="20" viewBox="0 0 20 20" fill="none" xmlns="http://www.w3.org/2000/svg">
<g clip-path="url(#clip0_327_447)">
<path d="M10.0001 4.16667C13.0659 4.16667 16.8017 6.18083 18.1084 9.08417C18.2301 9.3575 18.3334 9.67583 18.3334 10C18.3334 10.3233 18.2309 10.6425 18.1084 10.9158C16.8009 13.8192 13.0651 15.8333 10.0001 15.8333C6.93425 15.8333 3.19841 13.8192 1.89175 10.9158C1.77008 10.6417 1.66675 10.3242 1.66675 10C1.66675 9.67667 1.76925 9.3575 1.89175 9.08417C3.19925 6.18083 6.93508 4.16667 10.0001 4.16667ZM10.0001 6.66667C9.11603 6.66667 8.26818 7.01786 7.64306 7.64298C7.01794 8.2681 6.66675 9.11594 6.66675 10C6.66675 10.8841 7.01794 11.7319 7.64306 12.357C8.26818 12.9821 9.11603 13.3333 10.0001 13.3333C10.8841 13.3333 11.732 12.9821 12.3571 12.357C12.9822 11.7319 13.3334 10.8841 13.3334 10C13.3334 9.11594 12.9822 8.2681 12.3571 7.64298C11.732 7.01786 10.8841 6.66667 10.0001 6.66667ZM10.0001 8.33333C10.4421 8.33333 10.866 8.50893 11.1786 8.82149C11.4912 9.13405 11.6667 9.55797 11.6667 10C11.6667 10.442 11.4912 10.866 11.1786 11.1785C10.866 11.4911 10.4421 11.6667 10.0001 11.6667C9.55805 11.6667 9.13413 11.4911 8.82157 11.1785C8.50901 10.866 8.33341 10.442 8.33341 10C8.33341 9.55797 8.50901 9.13405 8.82157 8.82149C9.13413 8.50893 9.55805 8.33333 10.0001 8.33333Z" fill="white"/>
</g>
<defs>
<clipPath id="clip0_327_447">
<rect width="20" height="20" fill="white"/>
</clipPath>
</defs>
</svg>
