<svg fill="none" height="20" viewBox="0 0 20 20" width="20" xmlns="http://www.w3.org/2000/svg">
    <g clip-path="url(#clip0_3146_15416)">
        <path
            d="M4.99967 2.5C4.55765 2.5 4.13372 2.67559 3.82116 2.98816C3.5086 3.30072 3.33301 3.72464 3.33301 4.16667V17.5C3.33301 17.721 3.42081 17.933 3.57709 18.0893C3.73337 18.2455 3.94533 18.3333 4.16634 18.3333C4.38735 18.3333 4.59932 18.2455 4.7556 18.0893C4.91188 17.933 4.99967 17.721 4.99967 17.5V13.3333H16.503C16.6721 13.3334 16.838 13.2867 16.9822 13.1983C17.1264 13.11 17.2434 12.9835 17.3201 12.8328C17.3969 12.6821 17.4305 12.5131 17.4172 12.3445C17.4038 12.1759 17.3441 12.0143 17.2447 11.8775L14.363 7.91667L17.243 3.95583C17.3424 3.81912 17.4021 3.65757 17.4155 3.48905C17.4288 3.32053 17.3953 3.1516 17.3186 3.00093C17.242 2.85027 17.1251 2.72374 16.981 2.63533C16.837 2.54693 16.6712 2.50009 16.5022 2.5H4.99967Z"
            fill="currentColor"/>
    </g>
    <defs>
        <clipPath id="clip0_3146_15416">
            <rect fill="white" height="20" width="20"/>
        </clipPath>
    </defs>
</svg>
