<svg width="20" height="20" viewBox="0 0 20 20" fill="none" xmlns="http://www.w3.org/2000/svg">
<g clip-path="url(#clip0_2814_5699)">
<path d="M8.69827 3.64C9.38809 2.95045 10.2513 2.45995 11.1968 2.2203C12.1422 1.98064 13.1348 2.00071 14.0698 2.2784C15.0048 2.55609 15.8475 3.08109 16.5089 3.79797C17.1702 4.51485 17.6258 5.39701 17.8274 6.35131C18.029 7.3056 17.9692 8.29663 17.6543 9.21976C17.3394 10.1429 16.781 10.9639 16.0382 11.596C15.2955 12.2281 14.3958 12.648 13.4342 12.8112C12.4725 12.9744 11.4847 12.875 10.5749 12.5233L10.3508 12.4317L10.3341 12.4283H9.82577V13.7433C9.82589 14.0012 9.73034 14.25 9.55762 14.4415C9.38491 14.633 9.14729 14.7536 8.89077 14.78L8.7841 14.785H7.4691V16.1C7.46922 16.3579 7.37367 16.6066 7.20096 16.7981C7.02824 16.9896 6.79063 17.1103 6.5341 17.1367L6.42743 17.1417H3.10827C2.90091 17.1417 2.70086 17.0651 2.54646 16.9267C2.39206 16.7883 2.29418 16.5978 2.2716 16.3917L2.2666 16.3V14.125C2.2666 13.836 2.36672 13.556 2.54993 13.3325L2.63327 13.2408L7.2166 8.65667L7.22494 8.62583C7.22751 8.6033 7.22638 8.5805 7.2216 8.55833C7.04126 7.68036 7.08177 6.77134 7.33951 5.91289C7.59725 5.05444 8.06414 4.27344 8.69827 3.64ZM12.2333 5.99667C11.9989 6.23116 11.8673 6.54916 11.8673 6.88071C11.8674 7.21226 11.9992 7.5302 12.2337 7.76458C12.4682 7.99897 12.7862 8.1306 13.1177 8.13052C13.4493 8.13044 13.7672 7.99866 14.0016 7.76417C14.2292 7.52831 14.355 7.21249 14.352 6.88475C14.349 6.557 14.2174 6.24355 13.9856 6.01189C13.7537 5.78024 13.4401 5.64893 13.1124 5.64624C12.7846 5.64354 12.4689 5.76885 12.2333 5.99667Z" fill="currentColor"/>
</g>
<defs>
<clipPath id="clip0_2814_5699">
<rect width="20" height="20" fill="currentColor"/>
</clipPath>
</defs>
</svg>
