<svg width="20" height="20" viewBox="0 0 20 20" fill="none" xmlns="http://www.w3.org/2000/svg">
<g clip-path="url(#clip0_84_121)">
<path d="M9.07175 1.71756C9.29144 1.69325 9.51178 1.7572 9.68432 1.89535C9.85685 2.03351 9.96744 2.23454 9.99175 2.45423C10.0161 2.67391 9.9521 2.89426 9.81395 3.06679C9.6758 3.23933 9.47477 3.34991 9.25508 3.37423C7.56478 3.56785 6.01244 4.40032 4.91591 5.70117C3.81938 7.00202 3.26162 8.67285 3.35683 10.3715C3.45205 12.0702 4.19303 13.6683 5.42806 14.8384C6.66309 16.0086 8.29873 16.6624 10.0001 16.6659V18.3326C5.39758 18.3326 1.66675 14.6026 1.66675 9.99923C1.66675 5.74423 4.87341 2.18423 9.07175 1.71839V1.71756Z" fill="white"/>
<path d="M13.6017 3.36667C13.7281 3.18547 13.9213 3.06192 14.1389 3.02316C14.3564 2.98441 14.5804 3.03363 14.7617 3.16C15.8649 3.92713 16.766 4.94996 17.388 6.1411C18.01 7.33223 18.3343 8.65625 18.3333 10C18.3333 14.6025 14.6025 18.3333 10 18.3333V16.6667C11.4196 16.6669 12.8022 16.2139 13.9465 15.3737C15.0908 14.5336 15.937 13.3501 16.3619 11.9956C16.7869 10.6411 16.7683 9.18629 16.309 7.84305C15.8497 6.4998 14.9736 5.33824 13.8083 4.5275C13.7185 4.46488 13.6419 4.38518 13.5829 4.29293C13.5239 4.20069 13.4836 4.09772 13.4644 3.98992C13.4452 3.88211 13.4475 3.77157 13.471 3.66463C13.4946 3.55769 13.539 3.45644 13.6017 3.36667Z" fill="white"/>
</g>
<defs>
<clipPath id="clip0_84_121">
<rect width="20" height="20" fill="white"/>
</clipPath>
</defs>
</svg>
