<svg width="20" height="20" viewBox="0 0 20 20" fill="none" xmlns="http://www.w3.org/2000/svg">
<g clip-path="url(#clip0_798_10055)">
<path d="M16.6667 15C16.8791 15.0002 17.0834 15.0816 17.2378 15.2274C17.3923 15.3732 17.4852 15.5725 17.4976 15.7845C17.5101 15.9965 17.4411 16.2053 17.3048 16.3682C17.1685 16.5311 16.9751 16.6357 16.7642 16.6608L16.6667 16.6667H3.33333C3.12093 16.6664 2.91664 16.5851 2.76219 16.4393C2.60775 16.2935 2.5148 16.0942 2.50236 15.8822C2.48991 15.6701 2.5589 15.4614 2.69522 15.2985C2.83155 15.1356 3.02492 15.0309 3.23583 15.0058L3.33333 15H16.6667ZM16.6667 9.16667C16.8877 9.16667 17.0996 9.25446 17.2559 9.41075C17.4122 9.56703 17.5 9.77899 17.5 10C17.5 10.221 17.4122 10.433 17.2559 10.5893C17.0996 10.7455 16.8877 10.8333 16.6667 10.8333H3.33333C3.11232 10.8333 2.90036 10.7455 2.74408 10.5893C2.5878 10.433 2.5 10.221 2.5 10C2.5 9.77899 2.5878 9.56703 2.74408 9.41075C2.90036 9.25446 3.11232 9.16667 3.33333 9.16667H16.6667ZM16.6667 3.33333C16.8877 3.33333 17.0996 3.42113 17.2559 3.57741C17.4122 3.73369 17.5 3.94565 17.5 4.16667C17.5 4.38768 17.4122 4.59964 17.2559 4.75592C17.0996 4.9122 16.8877 5 16.6667 5H3.33333C3.11232 5 2.90036 4.9122 2.74408 4.75592C2.5878 4.59964 2.5 4.38768 2.5 4.16667C2.5 3.94565 2.5878 3.73369 2.74408 3.57741C2.90036 3.42113 3.11232 3.33333 3.33333 3.33333H16.6667Z" fill="white"/>
</g>
<defs>
<clipPath id="clip0_798_10055">
<rect width="20" height="20" fill="white"/>
</clipPath>
</defs>
</svg>
