<svg width="46" height="45" viewBox="0 0 46 45" fill="none" xmlns="http://www.w3.org/2000/svg">
    <path d="M30.427 5.625C31.8618 5.62492 33.2423 6.17311 34.2862 7.15741C35.3301 8.1417 35.9585 9.4877 36.0426 10.92L36.052 11.25V30H37.4583C38.6714 30 39.6707 30.9225 39.7908 32.1038L39.802 32.3438V35.625C39.8021 37.0598 39.2539 38.4403 38.2696 39.4842C37.2853 40.5281 35.9393 41.1565 34.507 41.2406L34.177 41.25H15.427C13.9922 41.2501 12.6117 40.7019 11.5678 39.7176C10.5239 38.7333 9.89555 37.3873 9.81138 35.955L9.802 35.625V16.875H6.52075C5.94052 16.8753 5.38081 16.6603 4.94994 16.2717C4.51907 15.8831 4.24767 15.3484 4.18825 14.7712L4.177 14.5312V11.25C4.17692 9.81523 4.72511 8.43466 5.70941 7.39076C6.69371 6.34686 8.0397 5.71855 9.472 5.63438L9.802 5.625H30.427ZM36.052 33.75H19.177V35.625C19.177 36.2812 19.0645 36.9131 18.8583 37.5H34.177C34.6743 37.5 35.1512 37.3025 35.5028 36.9508C35.8545 36.5992 36.052 36.1223 36.052 35.625V33.75ZM22.927 22.5H19.177C18.6991 22.5005 18.2394 22.6835 17.8919 23.0116C17.5444 23.3397 17.3353 23.788 17.3073 24.2651C17.2793 24.7422 17.4345 25.212 17.7412 25.5784C18.048 25.9449 18.4831 26.1804 18.9576 26.2369L19.177 26.25H22.927C23.4049 26.2495 23.8646 26.0665 24.2121 25.7384C24.5596 25.4103 24.7687 24.962 24.7967 24.4849C24.8247 24.0078 24.6695 23.538 24.3628 23.1716C24.056 22.8051 23.6209 22.5696 23.1464 22.5131L22.927 22.5ZM26.677 15H19.177C18.6797 15 18.2028 15.1975 17.8512 15.5492C17.4995 15.9008 17.302 16.3777 17.302 16.875C17.302 17.3723 17.4995 17.8492 17.8512 18.2008C18.2028 18.5525 18.6797 18.75 19.177 18.75H26.677C27.1743 18.75 27.6512 18.5525 28.0028 18.2008C28.3545 17.8492 28.552 17.3723 28.552 16.875C28.552 16.3777 28.3545 15.9008 28.0028 15.5492C27.6512 15.1975 27.1743 15 26.677 15ZM9.802 9.375C9.30472 9.375 8.82781 9.57254 8.47618 9.92418C8.12455 10.2758 7.927 10.7527 7.927 11.25V13.125H9.802V9.375Z" fill="currentColor"/>
</svg>
