<svg width="20" height="20" viewBox="0 0 20 20" fill="none" xmlns="http://www.w3.org/2000/svg">
<g clip-path="url(#clip0_742_364)">
<path d="M10.0001 1.66667C14.6026 1.66667 18.3334 5.3975 18.3334 10C18.3334 14.6025 14.6026 18.3333 10.0001 18.3333C5.39758 18.3333 1.66675 14.6025 1.66675 10C1.66675 5.3975 5.39758 1.66667 10.0001 1.66667ZM10.0001 5.83333C9.79597 5.83336 9.59897 5.9083 9.44644 6.04393C9.29391 6.17956 9.19646 6.36646 9.17258 6.56917L9.16675 6.66667V9.16667H6.66675C6.45435 9.1669 6.25005 9.24823 6.09561 9.39404C5.94116 9.53985 5.84822 9.73913 5.83577 9.95116C5.82332 10.1632 5.89231 10.372 6.02864 10.5349C6.16496 10.6977 6.35833 10.8024 6.56925 10.8275L6.66675 10.8333H9.16675V13.3333C9.16698 13.5457 9.24831 13.75 9.39412 13.9045C9.53993 14.0589 9.73921 14.1519 9.95124 14.1643C10.1633 14.1768 10.3721 14.1078 10.5349 13.9714C10.6978 13.8351 10.8025 13.6417 10.8276 13.4308L10.8334 13.3333V10.8333H13.3334C13.5458 10.8331 13.7501 10.7518 13.9046 10.606C14.059 10.4602 14.1519 10.2609 14.1644 10.0488C14.1768 9.8368 14.1079 9.62802 13.9715 9.46514C13.8352 9.30226 13.6418 9.19759 13.4309 9.1725L13.3334 9.16667H10.8334V6.66667C10.8334 6.44565 10.7456 6.23369 10.5893 6.07741C10.4331 5.92113 10.2211 5.83333 10.0001 5.83333Z" fill="white"/>
</g>
<g clip-path="url(#clip1_742_364)">
<path d="M10.0001 1.66667C14.6026 1.66667 18.3334 5.3975 18.3334 10C18.3334 14.6025 14.6026 18.3333 10.0001 18.3333C5.39758 18.3333 1.66675 14.6025 1.66675 10C1.66675 5.3975 5.39758 1.66667 10.0001 1.66667ZM10.0001 5.83333C9.79597 5.83336 9.59897 5.9083 9.44644 6.04393C9.29391 6.17956 9.19646 6.36646 9.17258 6.56917L9.16675 6.66667V9.16667H6.66675C6.45435 9.1669 6.25005 9.24823 6.09561 9.39404C5.94116 9.53985 5.84822 9.73913 5.83577 9.95116C5.82332 10.1632 5.89231 10.372 6.02864 10.5349C6.16496 10.6977 6.35833 10.8024 6.56925 10.8275L6.66675 10.8333H9.16675V13.3333C9.16698 13.5457 9.24831 13.75 9.39412 13.9045C9.53993 14.0589 9.73921 14.1519 9.95124 14.1643C10.1633 14.1768 10.3721 14.1078 10.5349 13.9714C10.6978 13.8351 10.8025 13.6417 10.8276 13.4308L10.8334 13.3333V10.8333H13.3334C13.5458 10.8331 13.7501 10.7518 13.9046 10.606C14.059 10.4602 14.1519 10.2609 14.1644 10.0488C14.1768 9.8368 14.1079 9.62802 13.9715 9.46514C13.8352 9.30226 13.6418 9.19759 13.4309 9.1725L13.3334 9.16667H10.8334V6.66667C10.8334 6.44565 10.7456 6.23369 10.5893 6.07741C10.4331 5.92113 10.2211 5.83333 10.0001 5.83333Z" fill="white"/>
</g>
<defs>
<clipPath id="clip0_742_364">
<rect width="20" height="20" fill="white"/>
</clipPath>
<clipPath id="clip1_742_364">
<rect width="20" height="20" fill="white"/>
</clipPath>
</defs>
</svg>
