<svg width="20" height="20" viewBox="0 0 20 20" fill="none" xmlns="http://www.w3.org/2000/svg">
<g clip-path="url(#clip0_413_1378)">
<path fill-rule="evenodd" clip-rule="evenodd" d="M10.0001 1.66667C5.39758 1.66667 1.66675 5.3975 1.66675 10C1.66675 14.6025 5.39758 18.3333 10.0001 18.3333C14.6026 18.3333 18.3334 14.6025 18.3334 10C18.3334 5.3975 14.6026 1.66667 10.0001 1.66667ZM7.08341 7.91667C7.08341 7.53364 7.15886 7.15437 7.30543 6.80051C7.45201 6.44664 7.66685 6.12511 7.93769 5.85427C8.20852 5.58343 8.53006 5.36859 8.88392 5.22202C9.23779 5.07544 9.61706 5 10.0001 5C10.3831 5 10.7624 5.07544 11.1162 5.22202C11.4701 5.36859 11.7916 5.58343 12.0625 5.85427C12.3333 6.12511 12.5482 6.44664 12.6947 6.80051C12.8413 7.15437 12.9167 7.53364 12.9167 7.91667C12.9167 8.69021 12.6095 9.43208 12.0625 9.97906C11.5155 10.526 10.7736 10.8333 10.0001 10.8333C9.22653 10.8333 8.48467 10.526 7.93769 9.97906C7.39071 9.43208 7.08341 8.69021 7.08341 7.91667ZM15.2151 14.1533C14.5913 14.938 13.7982 15.5716 12.8952 16.0068C11.9922 16.442 11.0025 16.6676 10.0001 16.6667C8.99765 16.6676 8.00797 16.442 7.10494 16.0068C6.20191 15.5716 5.40888 14.938 4.78508 14.1533C6.13591 13.1842 7.97925 12.5 10.0001 12.5C12.0209 12.5 13.8642 13.1842 15.2151 14.1533Z" fill="white"/>
</g>
<defs>
<clipPath id="clip0_413_1378">
<rect width="20" height="20" fill="white"/>
</clipPath>
</defs>
</svg>
