<svg width="20" height="20" viewBox="0 0 20 20" fill="none" xmlns="http://www.w3.org/2000/svg">
<g clip-path="url(#clip0_2848_32484)">
<path d="M12.0083 1.91083C12.8155 2.11075 13.588 2.431 14.2999 2.86083C14.4426 2.94696 14.5563 3.07392 14.6261 3.2253C14.6959 3.37668 14.7187 3.54552 14.6916 3.71C14.5974 4.28417 14.7399 4.72333 15.0083 4.99167C15.2766 5.26 15.7166 5.4025 16.2899 5.30833C16.4544 5.28119 16.6232 5.30401 16.7746 5.37383C16.926 5.44365 17.053 5.55727 17.1391 5.7C17.5689 6.4119 17.8892 7.18444 18.0891 7.99167C18.1293 8.15361 18.12 8.32392 18.0624 8.48051C18.0047 8.63711 17.9014 8.7728 17.7658 8.87C17.2933 9.20917 17.0824 9.62 17.0824 10C17.0824 10.38 17.2933 10.7917 17.7658 11.1308C17.9012 11.228 18.0045 11.3635 18.0621 11.52C18.1198 11.6764 18.1291 11.8465 18.0891 12.0083C17.8892 12.8156 17.5689 13.5881 17.1391 14.3C17.053 14.4427 16.926 14.5564 16.7746 14.6262C16.6232 14.696 16.4544 14.7188 16.2899 14.6917C15.7158 14.5975 15.2766 14.7408 15.0083 15.0083C14.7399 15.2767 14.5974 15.7167 14.6916 16.29C14.7189 16.4546 14.6962 16.6236 14.6263 16.7752C14.5565 16.9267 14.4428 17.0538 14.2999 17.14C13.588 17.5698 12.8155 17.8901 12.0083 18.09C11.8463 18.1302 11.676 18.1209 11.5194 18.0633C11.3628 18.0056 11.2271 17.9023 11.1299 17.7667C10.7908 17.2933 10.3799 17.0833 9.99992 17.0833C9.61992 17.0833 9.20825 17.2933 8.86908 17.7667C8.77194 17.9022 8.6364 18.0054 8.47997 18.063C8.32353 18.1207 8.15341 18.1301 7.99158 18.09C7.18437 17.8901 6.41183 17.5698 5.69992 17.14C5.55704 17.0538 5.44332 16.9267 5.37349 16.7752C5.30366 16.6236 5.28093 16.4546 5.30825 16.29C5.40242 15.7167 5.25908 15.2775 4.99158 15.0092C4.72242 14.7408 4.28325 14.5975 3.70992 14.6925C3.54531 14.7198 3.37629 14.6971 3.22474 14.6273C3.0732 14.5574 2.9461 14.4437 2.85992 14.3008C2.42995 13.5884 2.10969 12.8153 1.90992 12.0075C1.86986 11.8457 1.87925 11.6756 1.93689 11.5191C1.99453 11.3627 2.09777 11.2271 2.23325 11.13C2.70658 10.7917 2.91658 10.38 2.91658 10C2.91658 9.62083 2.70658 9.20833 2.23325 8.87C2.09777 8.77286 1.99453 8.63731 1.93689 8.48088C1.87925 8.32445 1.86986 8.15433 1.90992 7.9925C2.10976 7.18499 2.43001 6.41217 2.85992 5.7C2.9461 5.55712 3.0732 5.4434 3.22474 5.37357C3.37629 5.30374 3.54531 5.28102 3.70992 5.30833C4.28325 5.4025 4.72242 5.26 4.99075 4.99167C5.25908 4.72333 5.40242 4.28333 5.30742 3.71C5.28028 3.54552 5.30309 3.37668 5.37291 3.2253C5.44273 3.07392 5.55635 2.94696 5.69908 2.86083C6.41125 2.43092 7.18407 2.11066 7.99158 1.91083C8.15341 1.87077 8.32353 1.88017 8.47997 1.93781C8.6364 1.99545 8.77194 2.09868 8.86908 2.23417C9.20825 2.70667 9.61992 2.9175 9.99992 2.9175C10.3791 2.9175 10.7916 2.70667 11.1299 2.23417C11.2271 2.09868 11.3626 1.99545 11.519 1.93781C11.6755 1.88017 11.8464 1.87077 12.0083 1.91083ZM9.99992 5.83333C8.89485 5.83333 7.83504 6.27232 7.05364 7.05372C6.27224 7.83512 5.83325 8.89493 5.83325 10C5.83325 11.1051 6.27224 12.1649 7.05364 12.9463C7.83504 13.7277 8.89485 14.1667 9.99992 14.1667C11.105 14.1667 12.1648 13.7277 12.9462 12.9463C13.7276 12.1649 14.1666 11.1051 14.1666 10C14.1666 8.89493 13.7276 7.83512 12.9462 7.05372C12.1648 6.27232 11.105 5.83333 9.99992 5.83333ZM9.99992 7.5C10.663 7.5 11.2988 7.76339 11.7677 8.23223C12.2365 8.70107 12.4999 9.33696 12.4999 10C12.4999 10.663 12.2365 11.2989 11.7677 11.7678C11.2988 12.2366 10.663 12.5 9.99992 12.5C9.33688 12.5 8.70099 12.2366 8.23215 11.7678C7.76331 11.2989 7.49992 10.663 7.49992 10C7.49992 9.33696 7.76331 8.70107 8.23215 8.23223C8.70099 7.76339 9.33688 7.5 9.99992 7.5Z" fill="currentColor"/>
</g>
<defs>
<clipPath id="clip0_2848_32484">
<rect width="20" height="20" fill="currentColor"/>
</clipPath>
</defs>
</svg>
