<svg fill="none" height="35" viewBox="0 0 36 35" width="36" xmlns="http://www.w3.org/2000/svg">
    <path clip-rule="evenodd" d="M17.9998 2.91699C21.0711 2.91699 23.9207 3.86491 26.2686 5.48658C26.0221 5.84241 25.7582 6.24345 25.5 6.67366L25.36 6.91282L25.064 7.44512C24.4617 8.57824 23.8332 10.1022 23.8332 11.667C23.8332 14.5399 26.1125 17.5003 29.6665 17.5003C30.7632 17.5003 31.7388 17.2189 32.5642 16.7435C32.5773 16.9943 32.5832 17.2466 32.5832 17.5003C32.5832 25.5547 26.0542 32.0837 17.9998 32.0837C9.94546 32.0837 3.4165 25.5547 3.4165 17.5003C3.4165 9.44595 9.94546 2.91699 17.9998 2.91699ZM17.9998 20.417H13.6248C13.2381 20.417 12.8671 20.5706 12.5936 20.8441C12.3201 21.1176 12.1665 21.4886 12.1665 21.8753C12.1665 22.2621 12.3201 22.633 12.5936 22.9065C12.8671 23.18 13.2381 23.3337 13.6248 23.3337H17.9998C18.3866 23.3337 18.7575 23.18 19.031 22.9065C19.3045 22.633 19.4582 22.2621 19.4582 21.8753C19.4582 21.4886 19.3045 21.1176 19.031 20.8441C18.7575 20.5706 18.3866 20.417 17.9998 20.417ZM13.6248 14.5837H9.24984C8.86306 14.5837 8.49213 14.7373 8.21864 15.0108C7.94515 15.2843 7.7915 15.6552 7.7915 16.042C7.7915 16.4288 7.94515 16.7997 8.21864 17.0732C8.49213 17.3467 8.86306 17.5003 9.24984 17.5003H13.6248C14.0116 17.5003 14.3825 17.3467 14.656 17.0732C14.9295 16.7997 15.0832 16.4288 15.0832 16.042C15.0832 15.6552 14.9295 15.2843 14.656 15.0108C14.3825 14.7373 14.0116 14.5837 13.6248 14.5837ZM22.3748 14.5837H17.9998C17.6131 14.5837 17.2421 14.7373 16.9686 15.0108C16.6951 15.2843 16.5415 15.6552 16.5415 16.042C16.5415 16.4288 16.6951 16.7997 16.9686 17.0732C17.2421 17.3467 17.6131 17.5003 17.9998 17.5003H22.3748C22.7616 17.5003 23.1325 17.3467 23.406 17.0732C23.6795 16.7997 23.8332 16.4288 23.8332 16.042C23.8332 15.6552 23.6795 15.2843 23.406 15.0108C23.1325 14.7373 22.7616 14.5837 22.3748 14.5837ZM29.7394 5.92116L30.0865 6.35866L30.3855 6.75533C31.2488 7.93366 32.5832 10.022 32.5832 11.667C32.5832 13.1253 31.4209 14.5837 29.6665 14.5837C27.9121 14.5837 26.7498 13.1253 26.7498 11.667C26.7498 10.4347 27.5009 8.95158 28.2403 7.78783L28.5538 7.31241L28.8528 6.88512L29.1255 6.51616L29.4507 6.09616L29.5936 5.92116C29.6023 5.91022 29.6134 5.90138 29.626 5.89531C29.6387 5.88924 29.6525 5.88609 29.6665 5.88609C29.6805 5.88609 29.6943 5.88924 29.707 5.89531C29.7196 5.90138 29.7307 5.91022 29.7394 5.92116Z"
          fill="#888888"
          fill-rule="evenodd"/>
</svg>
