<svg width="25" height="26" viewBox="0 0 25 26" fill="none" xmlns="http://www.w3.org/2000/svg">
<path fill-rule="evenodd" clip-rule="evenodd" d="M14.875 2.58301C15.3122 2.58312 15.7384 2.72081 16.093 2.97656C16.4477 3.23231 16.7129 3.59316 16.851 4.00801L17.4167 5.70801H20.8333C21.1096 5.70801 21.3746 5.81775 21.5699 6.0131C21.7653 6.20846 21.875 6.47341 21.875 6.74967C21.875 7.02594 21.7653 7.29089 21.5699 7.48624C21.3746 7.68159 21.1096 7.79134 20.8333 7.79134L20.8302 7.8653L19.9271 20.5143C19.8707 21.3024 19.5179 22.0399 18.9396 22.5784C18.3613 23.1168 17.6006 23.4162 16.8104 23.4163H8.18958C7.39943 23.4162 6.63865 23.1168 6.06038 22.5784C5.48211 22.0399 5.12928 21.3024 5.07292 20.5143L4.16979 7.86426C4.16791 7.84 4.16686 7.81568 4.16667 7.79134C3.8904 7.79134 3.62545 7.68159 3.4301 7.48624C3.23475 7.29089 3.125 7.02594 3.125 6.74967C3.125 6.47341 3.23475 6.20846 3.4301 6.0131C3.62545 5.81775 3.8904 5.70801 4.16667 5.70801H7.58333L8.14896 4.00801C8.28718 3.593 8.55254 3.23202 8.90739 2.97625C9.26225 2.72049 9.68861 2.5829 10.126 2.58301H14.875ZM9.375 10.9163C9.11986 10.9164 8.87361 11.01 8.68295 11.1796C8.49228 11.3491 8.37048 11.5827 8.34062 11.8361L8.33333 11.958V18.208C8.33363 18.4735 8.43529 18.7289 8.61755 18.9219C8.79981 19.115 9.04891 19.2312 9.31395 19.2467C9.579 19.2623 9.83998 19.1761 10.0436 19.0056C10.2472 18.8352 10.378 18.5935 10.4094 18.3299L10.4167 18.208V11.958C10.4167 11.6817 10.3069 11.4168 10.1116 11.2214C9.91622 11.0261 9.65127 10.9163 9.375 10.9163ZM15.625 10.9163C15.3487 10.9163 15.0838 11.0261 14.8884 11.2214C14.6931 11.4168 14.5833 11.6817 14.5833 11.958V18.208C14.5833 18.4843 14.6931 18.7492 14.8884 18.9446C15.0838 19.1399 15.3487 19.2497 15.625 19.2497C15.9013 19.2497 16.1662 19.1399 16.3616 18.9446C16.5569 18.7492 16.6667 18.4843 16.6667 18.208V11.958C16.6667 11.6817 16.5569 11.4168 16.3616 11.2214C16.1662 11.0261 15.9013 10.9163 15.625 10.9163ZM14.875 4.66634H10.125L9.77812 5.70801H15.2219L14.875 4.66634Z" fill="#E5383A"/>
</svg>
