<svg width="20" height="20" viewBox="0 0 20 20" fill="none" xmlns="http://www.w3.org/2000/svg">
<g clip-path="url(#clip0_2395_6597)">
<path d="M13.3333 11.6667C14.4071 11.6667 15.4393 12.0813 16.2148 12.8239C16.9903 13.5665 17.4492 14.5798 17.4958 15.6525L17.5 15.8333V16.6667C17.5001 17.0871 17.3413 17.4921 17.0554 17.8005C16.7695 18.1088 16.3776 18.2976 15.9583 18.3292L15.8333 18.3333H4.16667C3.74619 18.3335 3.34119 18.1747 3.03288 17.8888C2.72456 17.6028 2.5357 17.211 2.50417 16.7917L2.5 16.6667V15.8333C2.50006 14.7596 2.91462 13.7274 3.65722 12.9519C4.39982 12.1763 5.41313 11.7174 6.48583 11.6708L6.66667 11.6667H13.3333ZM10 1.66667C11.1051 1.66667 12.1649 2.10565 12.9463 2.88705C13.7277 3.66846 14.1667 4.72826 14.1667 5.83333C14.1667 6.9384 13.7277 7.99821 12.9463 8.77961C12.1649 9.56101 11.1051 10 10 10C8.89493 10 7.83512 9.56101 7.05372 8.77961C6.27232 7.99821 5.83333 6.9384 5.83333 5.83333C5.83333 4.72826 6.27232 3.66846 7.05372 2.88705C7.83512 2.10565 8.89493 1.66667 10 1.66667Z" fill="currentColor"/>
</g>
<defs>
<clipPath id="clip0_2395_6597">
<rect width="20" height="20" fill="currentColor"/>
</clipPath>
</defs>
</svg>
