<svg width="65" height="34" viewBox="0 0 65 34" fill="none" xmlns="http://www.w3.org/2000/svg">
<path d="M0 18.6154V0.763733H5.50356V14.2596L4.07406 13.0933L13.5802 0.763733H19.3935L5.02706 18.6154H0ZM8.55315 10.2608L12.6272 6.97612L19.6556 18.6154H13.3658L8.55315 10.2608Z" fill="white"/>
<path d="M38.7593 14.6642L37.163 14.9975V0.763733H42.5474V18.6154H35.5905L25.9891 4.38167L27.5615 4.04844V18.6154H22.2009V0.763733H29.3722L38.7593 14.6642Z" fill="white"/>
<path d="M52.1345 10.5226C52.1345 11.2685 52.2695 11.9032 52.5396 12.4268C52.8096 12.9505 53.2146 13.363 53.7546 13.6645C54.2947 13.9502 54.9697 14.093 55.7798 14.093C56.6216 14.093 57.3125 13.9502 57.8525 13.6645C58.3926 13.3789 58.7896 12.9743 59.0438 12.4506C59.3138 11.9111 59.4488 11.2685 59.4488 10.5226V0.763733H65V10.8321C65 12.4665 64.6188 13.9026 63.8564 15.1403C63.094 16.3621 62.0219 17.3142 60.64 17.9965C59.2582 18.6789 57.6381 19.02 55.7798 19.02C53.9532 19.02 52.349 18.6789 50.9671 17.9965C49.5853 17.3142 48.5052 16.3621 47.7269 15.1403C46.9645 13.9026 46.5833 12.4665 46.5833 10.8321V0.763733H52.1345V10.5226Z" fill="white"/>
<path d="M14.46 27.4952L9.22805 29.2334V28.5601L14.46 30.3106V32.4283L7.59842 30.0046V27.789L14.46 25.3774V27.4952Z" fill="#EDD342"/>
<path d="M20.9922 24.0554C22.0949 24.0554 23.0588 24.2472 23.8839 24.6307C24.717 25.0061 25.3624 25.5366 25.8198 26.2221C26.2854 26.9076 26.5182 27.7155 26.5182 28.6458C26.5182 29.568 26.2854 30.3759 25.8198 31.0696C25.3624 31.7551 24.717 32.2896 23.8839 32.6732C23.0588 33.0486 22.0949 33.2363 20.9922 33.2363H16.2626V24.0554H20.9922ZM19.093 31.9999L17.782 30.7023H21.2127C21.711 30.7023 22.1399 30.6207 22.4993 30.4575C22.8669 30.2861 23.1487 30.0454 23.3447 29.7353C23.5408 29.4252 23.6388 29.062 23.6388 28.6458C23.6388 28.2215 23.5408 27.8583 23.3447 27.5564C23.1487 27.2463 22.8669 27.0096 22.4993 26.8464C22.1399 26.675 21.711 26.5893 21.2127 26.5893H17.782L19.093 25.2918V31.9999Z" fill="white"/>
<path d="M36.2443 27.6421V29.6496H29.4195V27.6421H36.2443ZM31.3676 28.6458L30.7918 32.1958L29.6768 30.9594H36.6731V33.2363H27.9614L28.6475 28.6458L27.9614 24.0554H36.6119V26.3323H29.6768L30.7918 25.0959L31.3676 28.6458Z" fill="white"/>
<path d="M44.1245 31.9387H42.9359L46.3422 24.0554H49.3319L45.1169 33.2363H41.8699L37.655 24.0554H40.7059L44.1245 31.9387Z" fill="white"/>
<path d="M50.3265 27.4952V25.3774L57.1881 27.789V30.0046L50.3265 32.4283V30.3106L55.5585 28.5601V29.2334L50.3265 27.4952Z" fill="#EDD342"/>
<path d="M14.46 27.4952L9.22805 29.2334V28.5601L14.46 30.3106V32.4283L7.59842 30.0046V27.789L14.46 25.3774V27.4952Z" fill="#EDD342"/>
<path d="M20.9922 24.0554C22.0949 24.0554 23.0588 24.2472 23.8839 24.6307C24.717 25.0061 25.3624 25.5366 25.8198 26.2221C26.2854 26.9076 26.5182 27.7155 26.5182 28.6458C26.5182 29.568 26.2854 30.3759 25.8198 31.0696C25.3624 31.7551 24.717 32.2896 23.8839 32.6732C23.0588 33.0486 22.0949 33.2363 20.9922 33.2363H16.2626V24.0554H20.9922ZM19.093 31.9999L17.782 30.7023H21.2127C21.711 30.7023 22.1399 30.6207 22.4993 30.4575C22.8669 30.2861 23.1487 30.0454 23.3447 29.7353C23.5408 29.4252 23.6388 29.062 23.6388 28.6458C23.6388 28.2215 23.5408 27.8583 23.3447 27.5564C23.1487 27.2463 22.8669 27.0096 22.4993 26.8464C22.1399 26.675 21.711 26.5893 21.2127 26.5893H17.782L19.093 25.2918V31.9999Z" fill="white"/>
<path d="M36.2443 27.6421V29.6496H29.4195V27.6421H36.2443ZM31.3676 28.6458L30.7918 32.1958L29.6768 30.9594H36.6731V33.2363H27.9614L28.6475 28.6458L27.9614 24.0554H36.6119V26.3323H29.6768L30.7918 25.0959L31.3676 28.6458Z" fill="white"/>
<path d="M44.1245 31.9387H42.9359L46.3422 24.0554H49.3319L45.1169 33.2363H41.8699L37.655 24.0554H40.7059L44.1245 31.9387Z" fill="white"/>
<path d="M50.3265 27.4952V25.3774L57.1881 27.789V30.0046L50.3265 32.4283V30.3106L55.5585 28.5601V29.2334L50.3265 27.4952Z" fill="#EDD342"/>
</svg>
