<svg width="65" height="60" viewBox="0 0 65 60" fill="none" xmlns="http://www.w3.org/2000/svg">
<path d="M0 45.3765V27.5216H5.50356V41.0199L4.07406 39.8534L13.5802 27.5216H19.3935L5.02706 45.3765H0ZM8.55315 37.0204L12.6272 33.7351L19.6556 45.3765H13.3658L8.55315 37.0204Z" fill="white"/>
<path d="M38.7593 41.4246L37.163 41.7579V27.5216H42.5474V45.3765H35.5905L25.9891 31.1402L27.5615 30.8069V45.3765H22.2009V27.5216H29.3722L38.7593 41.4246Z" fill="white"/>
<path d="M52.1345 37.2823C52.1345 38.0282 52.2695 38.6631 52.5396 39.1868C52.8096 39.7106 53.2146 40.1232 53.7546 40.4248C54.2947 40.7104 54.9697 40.8533 55.7798 40.8533C56.6216 40.8533 57.3125 40.7104 57.8525 40.4248C58.3926 40.1391 58.7896 39.7344 59.0438 39.2106C59.3138 38.671 59.4488 38.0282 59.4488 37.2823V27.5216H65V37.5918C65 39.2265 64.6188 40.6628 63.8564 41.9008C63.094 43.1228 62.0219 44.0751 60.64 44.7575C59.2582 45.44 57.6381 45.7812 55.7798 45.7812C53.9532 45.7812 52.349 45.44 50.9671 44.7575C49.5853 44.0751 48.5052 43.1228 47.7269 41.9008C46.9645 40.6628 46.5833 39.2265 46.5833 37.5918V27.5216H52.1345V37.2823Z" fill="white"/>
<path d="M14.46 54.2579L9.22805 55.9964V55.323L14.46 57.0738V59.1919L7.59842 56.7678V54.5517L14.46 52.1398V54.2579Z" fill="#EDD342"/>
<path d="M20.9922 50.8175C22.0949 50.8175 23.0588 51.0093 23.8839 51.3929C24.717 51.7684 25.3624 52.2989 25.8198 52.9846C26.2854 53.6702 26.5182 54.4782 26.5182 55.4087C26.5182 56.3311 26.2854 57.1391 25.8198 57.8329C25.3624 58.5186 24.717 59.0532 23.8839 59.4368C23.0588 59.8123 22.0949 60 20.9922 60H16.2626V50.8175H20.9922ZM19.093 58.7634L17.782 57.4656H21.2127C21.711 57.4656 22.1399 57.384 22.4993 57.2207C22.8669 57.0493 23.1487 56.8086 23.3447 56.4984C23.5408 56.1882 23.6388 55.825 23.6388 55.4087C23.6388 54.9843 23.5408 54.6211 23.3447 54.3191C23.1487 54.0089 22.8669 53.7722 22.4993 53.609C22.1399 53.4376 21.711 53.3519 21.2127 53.3519H17.782L19.093 52.0541V58.7634Z" fill="white"/>
<path d="M36.2443 54.4048V56.4127H29.4195V54.4048H36.2443ZM31.3676 55.4087L30.7918 58.9593L29.6768 57.7227H36.6731V60H27.9614L28.6475 55.4087L27.9614 50.8175H36.6119V53.0947H29.6768L30.7918 51.8582L31.3676 55.4087Z" fill="white"/>
<path d="M44.1245 58.7022H42.9359L46.3422 50.8175H49.3319L45.1169 60H41.8699L37.655 50.8175H40.7059L44.1245 58.7022Z" fill="white"/>
<path d="M50.3265 54.2579V52.1398L57.1881 54.5517V56.7678L50.3265 59.1919V57.0738L55.5585 55.323V55.9964L50.3265 54.2579Z" fill="#EDD342"/>
<path d="M14.46 54.2579L9.22805 55.9964V55.323L14.46 57.0738V59.1919L7.59842 56.7678V54.5517L14.46 52.1398V54.2579Z" fill="#EDD342"/>
<path d="M20.9922 50.8175C22.0949 50.8175 23.0588 51.0093 23.8839 51.3929C24.717 51.7684 25.3624 52.2989 25.8198 52.9846C26.2854 53.6702 26.5182 54.4782 26.5182 55.4087C26.5182 56.3311 26.2854 57.1391 25.8198 57.8329C25.3624 58.5186 24.717 59.0532 23.8839 59.4368C23.0588 59.8123 22.0949 60 20.9922 60H16.2626V50.8175H20.9922ZM19.093 58.7634L17.782 57.4656H21.2127C21.711 57.4656 22.1399 57.384 22.4993 57.2207C22.8669 57.0493 23.1487 56.8086 23.3447 56.4984C23.5408 56.1882 23.6388 55.825 23.6388 55.4087C23.6388 54.9843 23.5408 54.6211 23.3447 54.3191C23.1487 54.0089 22.8669 53.7722 22.4993 53.609C22.1399 53.4376 21.711 53.3519 21.2127 53.3519H17.782L19.093 52.0541V58.7634Z" fill="white"/>
<path d="M36.2443 54.4048V56.4127H29.4195V54.4048H36.2443ZM31.3676 55.4087L30.7918 58.9593L29.6768 57.7227H36.6731V60H27.9614L28.6475 55.4087L27.9614 50.8175H36.6119V53.0947H29.6768L30.7918 51.8582L31.3676 55.4087Z" fill="white"/>
<path d="M44.1245 58.7022H42.9359L46.3422 50.8175H49.3319L45.1169 60H41.8699L37.655 50.8175H40.7059L44.1245 58.7022Z" fill="white"/>
<path d="M50.3265 54.2579V52.1398L57.1881 54.5517V56.7678L50.3265 59.1919V57.0738L55.5585 55.323V55.9964L50.3265 54.2579Z" fill="#EDD342"/>
<path d="M12.8957 10.3851L13.5571 10.6262L13.7225 17.2153H12.7303L12.8957 10.3851Z" fill="#E5383A"/>
<path fill-rule="evenodd" clip-rule="evenodd" d="M13.6631 19.0063H12.5867L12.204 21.0034H13.6631L13.2007 19.4217H13.5037L13.8864 21.0034H14.1894L13.6552 19.0063H13.6631Z" fill="#E5383A"/>
<path d="M13.2012 18.9929C13.7832 18.9929 14.1899 18.4936 14.1899 17.9943C14.1899 17.4118 13.6955 16.9958 13.2012 16.9958C12.7068 16.9958 12.2125 17.495 12.2125 17.9943C12.1328 18.4936 12.6271 18.9929 13.2012 18.9929Z" fill="#E5383A"/>
<path d="M12.4025 18.6203H13.9901C14.1012 18.6203 14.1885 18.7087 14.1885 18.8213C14.1885 18.9339 14.1012 19.0224 13.9901 19.0224H12.4025C12.2913 19.0224 12.204 18.9339 12.204 18.8213C12.204 18.7087 12.2913 18.6203 12.4025 18.6203Z" fill="#EDD342"/>
<path d="M20.948 13.2196C20.948 12.9442 21.1949 12.7376 21.4418 12.8064L32.316 17.131H32.5629L43.3878 12.8064C43.6346 12.7376 43.8877 12.9442 43.8877 13.2196L43.9555 19.7547L43.8321 19.8236C42.0362 20.7876 40.1786 21.6897 38.253 22.2406C37.821 22.3784 37.2594 22.5161 36.8212 22.6538C35.8893 22.8604 35.0192 23.067 34.0811 23.1359C33.0196 23.2047 32.026 23.2047 30.9644 23.1359L29.5327 22.9981L28.1626 22.7915C27.1011 22.6538 26.0457 22.3784 25.0459 21.9583C24.1758 21.614 23.3673 21.2008 22.5526 20.7119L20.9357 19.7478V13.2127L20.948 13.2196Z" fill="#E5383A"/>
<path d="M32.4261 1.24278C32.5514 1.17953 32.9273 1.17953 33.0526 1.24278L53.0999 8.83235C53.4132 8.95884 53.4132 9.33832 53.0999 9.46481L33.3407 18.6925C33.1528 18.781 32.9398 18.8253 32.7331 18.8253C32.5263 18.8253 32.3321 18.781 32.1442 18.6988L11.7523 9.46481C11.439 9.33832 11.439 8.95884 11.7523 8.83235L32.4261 1.24278Z" fill="black"/>
<path d="M32.4263 0.0474348C32.5516 -0.0158116 32.9275 -0.0158116 33.0528 0.0474348L54.0399 8.96518C54.3531 9.09167 54.3531 9.59764 54.0399 9.72414L33.3472 17.4528C33.153 17.5287 32.9651 17.5667 32.7521 17.5667C32.5453 17.5667 32.3198 17.5287 32.1319 17.4592L10.8754 9.71781C10.5622 9.59132 10.4995 9.14859 10.8754 8.95885L32.4263 0.0474348Z" fill="#E5383A"/>
</svg>
