<svg width="20" height="20" viewBox="0 0 20 20" fill="none" xmlns="http://www.w3.org/2000/svg">
<g clip-path="url(#clip0_616_399)">
<path fill-rule="evenodd" clip-rule="evenodd" d="M11.76 3.12L17.9633 6.25417C18.2255 6.38754 18.4326 6.60853 18.5488 6.87875C18.6649 7.14897 18.6828 7.45134 18.5992 7.73333C18.2742 8.8425 18.31 9.30833 18.5225 9.83417C18.7367 10.3658 18.5883 11.0417 18.0333 11.3925L9.46333 16.8175C9.10417 17.045 8.64667 17.08 8.24917 16.8858L5.04917 15.3067L3.7125 14.6358L2.7625 14.1508L2.1825 13.8467L1.8825 13.6833L1.665 13.5583C0.815001 13.0458 0.550001 12.0042 0.555001 11.2083C0.558334 10.3992 0.836668 9.38833 1.60917 8.83333L1.85917 8.66083L2.57417 8.19333L4.27833 7.105L10.535 3.17583C10.7172 3.06212 10.9257 2.99731 11.1403 2.98768C11.3549 2.97804 11.5683 3.02307 11.76 3.12ZM16.6942 8.90667L9.46667 13.4817L9.37667 13.5342L9.28417 13.5775C9.1925 13.9175 9.16083 14.1617 9.16417 14.3883C9.16583 14.5233 9.18083 14.6617 9.21 14.8192L9.245 14.9833L16.8683 10.1583L16.8083 9.95083C16.7374 9.67966 16.6988 9.40106 16.6933 9.12083L16.6942 8.90667ZM2.33333 10.565C2.2581 10.7734 2.2203 10.9934 2.22167 11.215C2.21917 11.775 2.41917 12.0675 2.52583 12.1317L2.7825 12.2775L3.30417 12.555L4.77917 13.3075L7.50833 14.6667C7.50166 14.5827 7.49777 14.4984 7.49667 14.4142C7.49361 14.1024 7.52547 13.7913 7.59167 13.4867L7.6475 13.2467L2.33333 10.565ZM11.6367 5.76167C11.4482 5.66229 11.2289 5.63884 11.0237 5.69614C10.8186 5.75344 10.6431 5.88714 10.5335 6.06977C10.4238 6.2524 10.3883 6.47009 10.4341 6.67812C10.48 6.88615 10.6037 7.06872 10.78 7.18833L10.8633 7.23833L12.6133 8.155C12.8018 8.25438 13.0211 8.27782 13.2263 8.22052C13.4314 8.16322 13.6069 8.02952 13.7165 7.8469C13.8262 7.66427 13.8617 7.44658 13.8159 7.23855C13.77 7.03052 13.6463 6.84794 13.47 6.72833L13.3867 6.67833L11.6367 5.76167Z" fill="white"/>
</g>
<defs>
<clipPath id="clip0_616_399">
<rect width="20" height="20" fill="white"/>
</clipPath>
</defs>
</svg>
