<svg width="20" height="20" viewBox="0 0 20 20" fill="none" xmlns="http://www.w3.org/2000/svg">
<g clip-path="url(#clip0_616_398)">
<path fill-rule="evenodd" clip-rule="evenodd" d="M15.8334 9.16667C16.3397 9.16668 16.8341 9.32042 17.2511 9.60754C17.6681 9.89466 17.9881 10.3016 18.1688 10.7746C18.3494 11.2476 18.3822 11.7643 18.2628 12.2563C18.1434 12.7483 17.8774 13.1925 17.5001 13.53V17.6592C17.5001 17.7302 17.4819 17.8001 17.4473 17.8621C17.4127 17.9242 17.3628 17.9764 17.3023 18.0137C17.2418 18.051 17.1728 18.0723 17.1019 18.0754C17.0309 18.0786 16.9603 18.0635 16.8967 18.0317L15.8334 17.5L14.7701 18.0317C14.7066 18.0635 14.6359 18.0786 14.565 18.0754C14.494 18.0723 14.425 18.051 14.3645 18.0137C14.3041 17.9764 14.2542 17.9242 14.2195 17.8621C14.1849 17.8001 14.1667 17.7302 14.1667 17.6592V13.53C13.7894 13.1925 13.5234 12.7483 13.404 12.2563C13.2846 11.7643 13.3174 11.2476 13.4981 10.7746C13.6787 10.3016 13.9987 9.89466 14.4157 9.60754C14.8328 9.32042 15.3271 9.16668 15.8334 9.16667ZM16.6667 3.33334C17.1088 3.33334 17.5327 3.50893 17.8453 3.82149C18.1578 4.13405 18.3334 4.55798 18.3334 5V8.33334C17.531 7.73155 16.5385 7.43938 15.538 7.51049C14.5376 7.58159 13.5963 8.01118 12.8871 8.72039C12.1779 9.42961 11.7483 10.3708 11.6772 11.3713C11.6061 12.3718 11.8983 13.3643 12.5001 14.1667V16.6667H3.33341C2.89139 16.6667 2.46746 16.4911 2.1549 16.1785C1.84234 15.866 1.66675 15.442 1.66675 15V5C1.66675 4.55798 1.84234 4.13405 2.1549 3.82149C2.46746 3.50893 2.89139 3.33334 3.33341 3.33334H16.6667ZM6.66675 10.8333H5.00008C4.77907 10.8333 4.56711 10.9211 4.41083 11.0774C4.25455 11.2337 4.16675 11.4457 4.16675 11.6667C4.16675 11.8877 4.25455 12.0996 4.41083 12.2559C4.56711 12.4122 4.77907 12.5 5.00008 12.5H6.66675C6.88776 12.5 7.09972 12.4122 7.256 12.2559C7.41228 12.0996 7.50008 11.8877 7.50008 11.6667C7.50008 11.4457 7.41228 11.2337 7.256 11.0774C7.09972 10.9211 6.88776 10.8333 6.66675 10.8333ZM10.0001 7.5H5.00008C4.78768 7.50024 4.58339 7.58157 4.42894 7.72738C4.27449 7.87318 4.18155 8.07246 4.1691 8.2845C4.15666 8.49653 4.22564 8.70532 4.36197 8.8682C4.49829 9.03107 4.69167 9.13575 4.90258 9.16084L5.00008 9.16667H10.0001C10.2125 9.16643 10.4168 9.0851 10.5712 8.9393C10.7257 8.79349 10.8186 8.59421 10.8311 8.38217C10.8435 8.17014 10.7745 7.96135 10.6382 7.79848C10.5019 7.6356 10.3085 7.53092 10.0976 7.50584L10.0001 7.5Z" fill="white"/>
</g>
<defs>
<clipPath id="clip0_616_398">
<rect width="20" height="20" fill="white"/>
</clipPath>
</defs>
</svg>
