<svg width="22" height="22" viewBox="0 0 22 22" fill="none" xmlns="http://www.w3.org/2000/svg">
<g clip-path="url(#clip0_449_1427)">
<path d="M15.1251 10.0833C16.001 10.0833 16.8619 10.3114 17.6228 10.7453C18.3837 11.1792 19.0185 11.8038 19.4645 12.5577C19.9106 13.3115 20.1525 14.1686 20.1665 15.0444C20.1805 15.9202 19.9661 16.7846 19.5443 17.5523L19.8982 18.7541C19.945 18.9129 19.9481 19.0814 19.9072 19.2418C19.8663 19.4023 19.783 19.5487 19.6659 19.6658C19.5488 19.7829 19.4024 19.8662 19.2419 19.9071C19.0815 19.948 18.913 19.9449 18.7542 19.8981L17.5533 19.5442C16.8795 19.9142 16.1301 20.1253 15.3622 20.1612C14.5943 20.1971 13.8284 20.0569 13.1231 19.7514C12.4177 19.4459 11.7915 18.9832 11.2924 18.3986C10.7932 17.8139 10.4344 17.1229 10.2433 16.3784C10.0522 15.6338 10.0339 14.8554 10.1898 14.1027C10.3456 13.3499 10.6716 12.6428 11.1426 12.0354C11.6137 11.4279 12.2175 10.9363 12.9077 10.5979C13.5979 10.2596 14.3564 10.0836 15.1251 10.0833ZM10.0834 2.75C11.9075 2.75025 13.6802 3.35476 15.1243 4.46907C16.5685 5.58338 17.6029 7.1447 18.0658 8.90908C16.6784 8.25148 15.1108 8.0772 13.6129 8.41403C12.1149 8.75085 10.7729 9.57939 9.80052 10.7676C8.82819 11.9558 8.28157 13.4353 8.24778 14.9703C8.214 16.5052 8.69499 18.0073 9.6141 19.2372C8.28757 19.1633 6.9988 18.7686 5.85851 18.0868L3.42935 18.8017C3.27001 18.8487 3.10096 18.8519 2.93997 18.8109C2.77899 18.77 2.63203 18.6863 2.51456 18.5689C2.3971 18.4514 2.31347 18.3044 2.27249 18.1435C2.23151 17.9825 2.23468 17.8134 2.28168 17.6541L2.99668 15.2249C2.24999 13.9726 1.84855 12.5447 1.83322 11.0867C1.81789 9.62874 2.18924 8.19275 2.90943 6.92497C3.62963 5.6572 4.67295 4.60294 5.93314 3.86956C7.19333 3.13618 8.62537 2.74988 10.0834 2.75Z" fill="white"/>
</g>
<defs>
<clipPath id="clip0_449_1427">
<rect width="22" height="22" fill="white"/>
</clipPath>
</defs>
</svg>
