<svg width="20" height="20" viewBox="0 0 20 20" fill="none" xmlns="http://www.w3.org/2000/svg">
<g clip-path="url(#clip0_453_2574)">
<path d="M12.0716 2.61916C12.2843 2.67899 12.4645 2.82084 12.5727 3.01352C12.6808 3.2062 12.708 3.43394 12.6483 3.64666L8.9566 16.8033C8.92705 16.9087 8.87703 17.0073 8.80941 17.0933C8.74178 17.1794 8.65786 17.2513 8.56245 17.3049C8.46704 17.3585 8.362 17.3928 8.25333 17.4058C8.14466 17.4189 8.03448 17.4104 7.9291 17.3808C7.82371 17.3513 7.72518 17.3013 7.63912 17.2336C7.55306 17.166 7.48117 17.0821 7.42754 16.9867C7.37392 16.8913 7.33961 16.7862 7.32658 16.6776C7.31355 16.5689 7.32205 16.4587 7.3516 16.3533L11.0433 3.19666C11.0728 3.09118 11.1228 2.99255 11.1905 2.90642C11.2582 2.82029 11.3422 2.74835 11.4377 2.69471C11.5332 2.64107 11.6384 2.60679 11.7471 2.59383C11.8559 2.58087 11.9662 2.58948 12.0716 2.61916ZM6.00576 5.875C6.16199 6.03127 6.24975 6.24319 6.24975 6.46416C6.24975 6.68513 6.16199 6.89706 6.00576 7.05333L3.05993 10L6.00576 12.9458C6.08319 13.0232 6.14462 13.1151 6.18654 13.2162C6.22846 13.3173 6.25006 13.4257 6.2501 13.5351C6.25014 13.6446 6.22862 13.753 6.18677 13.8541C6.14491 13.9552 6.08355 14.0472 6.00618 14.1246C5.92881 14.202 5.83695 14.2634 5.73584 14.3054C5.63473 14.3473 5.52635 14.3689 5.41689 14.3689C5.30743 14.369 5.19904 14.3474 5.0979 14.3056C4.99676 14.2637 4.90486 14.2024 4.82743 14.125L1.2916 10.5892C1.13537 10.4329 1.04761 10.221 1.04761 10C1.04761 9.77903 1.13537 9.5671 1.2916 9.41083L4.82743 5.875C4.9837 5.71877 5.19563 5.63101 5.4166 5.63101C5.63757 5.63101 5.84949 5.71877 6.00576 5.875ZM13.9941 7.05333C13.9145 6.97646 13.851 6.8845 13.8073 6.78283C13.7637 6.68116 13.7407 6.57181 13.7397 6.46116C13.7388 6.35051 13.7598 6.24078 13.8017 6.13837C13.8436 6.03595 13.9055 5.94291 13.9838 5.86467C14.062 5.78642 14.1551 5.72455 14.2575 5.68265C14.3599 5.64074 14.4696 5.61966 14.5803 5.62062C14.6909 5.62158 14.8003 5.64457 14.9019 5.68825C15.0036 5.73192 15.0956 5.7954 15.1724 5.875L18.7083 9.41083C18.8645 9.5671 18.9523 9.77903 18.9523 10C18.9523 10.221 18.8645 10.4329 18.7083 10.5892L15.1724 14.125C15.0161 14.2813 14.804 14.369 14.583 14.3689C14.3619 14.3688 14.1499 14.2809 13.9937 14.1246C13.8374 13.9682 13.7497 13.7562 13.7498 13.5351C13.7498 13.3141 13.8377 13.1021 13.9941 12.9458L16.9399 10L13.9941 7.05333Z" fill="white"/>
</g>
<defs>
<clipPath id="clip0_453_2574">
<rect width="20" height="20" fill="white"/>
</clipPath>
</defs>
</svg>
