<svg width="20" height="20" viewBox="0 0 20 20" fill="none" xmlns="http://www.w3.org/2000/svg">
<path fill-rule="evenodd" clip-rule="evenodd" d="M9.33338 1.1675C9.41111 1.06416 9.51179 0.980295 9.62749 0.922542C9.74319 0.864788 9.87073 0.834724 10 0.834724C10.1294 0.834724 10.2569 0.864788 10.3726 0.922542C10.4883 0.980295 10.589 1.06416 10.6667 1.1675L12.9167 4.16667H16.7875C17.0058 4.16661 17.2202 4.22368 17.4096 4.33222C17.5989 4.44075 17.7565 4.59695 17.8667 4.7853C17.977 4.97365 18.0359 5.18757 18.0378 5.40579C18.0397 5.62402 17.9845 5.83893 17.8775 6.02917L10.9084 18.4192C10.8178 18.5805 10.686 18.7148 10.5263 18.8082C10.3667 18.9017 10.185 18.9509 10 18.9509C9.81506 18.9509 9.63342 18.9017 9.47378 18.8082C9.31414 18.7148 9.18226 18.5805 9.09171 18.4192L2.12421 6.02917C2.01735 5.83906 1.96209 5.62429 1.96391 5.40621C1.96574 5.18813 2.02459 4.97432 2.13462 4.78602C2.24465 4.59772 2.40203 4.44149 2.59113 4.33284C2.78022 4.22419 2.99446 4.1669 3.21255 4.16667H7.08338L9.33338 1.1675ZM9.99755 3.05584L7.77505 6.01834L9.99755 9.7225L12.2192 6.01834L9.99755 3.05584Z" fill="currentColor"/>
</svg>
