<svg width="60" height="60" viewBox="0 0 60 60" fill="none" xmlns="http://www.w3.org/2000/svg">
<path fill-rule="evenodd" clip-rule="evenodd" d="M30 5V21.25C30 22.2446 30.3951 23.1984 31.0983 23.9016C31.8016 24.6049 32.7554 25 33.75 25H50V50C50 51.3261 49.4732 52.5978 48.5355 53.5355C47.5979 54.4732 46.3261 55 45 55H15C13.6739 55 12.4021 54.4732 11.4645 53.5355C10.5268 52.5978 10 51.3261 10 50V10C10 8.67392 10.5268 7.40215 11.4645 6.46447C12.4021 5.52678 13.6739 5 15 5H30ZM27.5275 29.62C26.9286 33.4275 24.9375 36.877 21.94 39.3C19.7225 41.09 21.75 44.6025 24.41 43.58C28.0072 42.1953 31.9903 42.1953 35.5875 43.58C38.2475 44.605 40.275 41.0925 38.0575 39.3C35.0602 36.8769 33.0691 33.4274 32.47 29.62C32.0275 26.805 27.97 26.8025 27.5275 29.62ZM30 35.7575L32.015 39.2425H27.99L30 35.7575ZM35 5.1075C35.9472 5.30839 36.8157 5.77998 37.5 6.465L48.535 17.5C49.22 18.1843 49.6916 19.0528 49.8925 20H35V5.1075Z" fill="#A0A0A0"/>
</svg>
