<svg width="22" height="22" viewBox="0 0 22 22" fill="none" xmlns="http://www.w3.org/2000/svg">
<g clip-path="url(#clip0_449_1428)">
<path fill-rule="evenodd" clip-rule="evenodd" d="M11.0001 1.83334C9.34438 1.8331 7.73167 2.36027 6.39581 3.33841C5.05994 4.31655 4.07039 5.69479 3.57066 7.27326C3.07093 8.85172 3.087 10.5483 3.61655 12.1171C4.14609 13.6858 5.16158 15.045 6.51573 15.9977L7.84031 18.6468C8.06874 19.1035 8.4198 19.4876 8.85418 19.756C9.28856 20.0245 9.7891 20.1667 10.2997 20.1667H11.7004C12.211 20.1667 12.7116 20.0245 13.1459 19.756C13.5803 19.4876 13.9314 19.1035 14.1598 18.6468L15.4844 15.9977C16.8386 15.045 17.854 13.6858 18.3836 12.1171C18.9131 10.5483 18.9292 8.85172 18.4295 7.27326C17.9297 5.69479 16.9402 4.31655 15.6043 3.33841C14.2685 2.36027 12.6557 1.8331 11.0001 1.83334ZM12.8334 17.1994C12.233 17.344 11.6176 17.417 11.0001 17.4167C10.3825 17.417 9.76711 17.344 9.16673 17.1994L9.48023 17.8264C9.55631 17.9787 9.67326 18.1067 9.818 18.1962C9.96274 18.2858 10.1295 18.3332 10.2997 18.3333H11.7004C11.8706 18.3332 12.0374 18.2858 12.1821 18.1962C12.3269 18.1067 12.4438 17.9787 12.5199 17.8264L12.8334 17.1994Z" fill="white"/>
</g>
<defs>
<clipPath id="clip0_449_1428">
<rect width="22" height="22" fill="white"/>
</clipPath>
</defs>
</svg>
