<svg width="20" height="20" viewBox="0 0 20 20" fill="none" xmlns="http://www.w3.org/2000/svg">
<g clip-path="url(#clip0_616_400)">
<path fill-rule="evenodd" clip-rule="evenodd" d="M9.16675 1.66666C8.06168 1.66666 7.00187 2.10565 6.22047 2.88705C5.43907 3.66845 5.00008 4.72826 5.00008 5.83333C5.00008 6.9384 5.43907 7.99821 6.22047 8.77961C7.00187 9.56101 8.06168 10 9.16675 10C10.2718 10 11.3316 9.56101 12.113 8.77961C12.8944 7.99821 13.3334 6.9384 13.3334 5.83333C13.3334 4.72826 12.8944 3.66845 12.113 2.88705C11.3316 2.10565 10.2718 1.66666 9.16675 1.66666ZM9.16675 10.8333C7.17092 10.8333 5.35425 11.4117 4.01841 12.2267C3.35175 12.6333 2.78175 13.1133 2.37008 13.635C1.96508 14.1467 1.66675 14.7608 1.66675 15.4167C1.66675 16.1208 2.00925 16.6758 2.50258 17.0717C2.96925 17.4467 3.58508 17.695 4.23925 17.8683C5.55425 18.2158 7.30925 18.3333 9.16675 18.3333C9.35842 18.3333 9.55008 18.3317 9.73758 18.3292C9.87715 18.3272 10.014 18.2903 10.1356 18.2217C10.2571 18.1532 10.3595 18.0551 10.4334 17.9367C10.5072 17.8182 10.5501 17.6831 10.5581 17.5438C10.5661 17.4044 10.539 17.2653 10.4792 17.1392C10.1625 16.4706 9.99885 15.7398 10.0001 15C10.0001 13.9567 10.3192 12.99 10.8642 12.1892C10.9453 12.0702 10.9941 11.9322 11.0059 11.7887C11.0177 11.6452 10.9922 11.5011 10.9317 11.3705C10.8713 11.2398 10.7781 11.127 10.6611 11.0431C10.5441 10.9592 10.4074 10.907 10.2642 10.8917C9.90592 10.8533 9.53925 10.8333 9.16675 10.8333ZM18.0901 13.39C18.2419 13.2328 18.3259 13.0223 18.324 12.8038C18.3221 12.5853 18.2344 12.3763 18.0799 12.2218C17.9254 12.0673 17.7164 11.9797 17.4979 11.9778C17.2794 11.9759 17.0689 12.0599 16.9117 12.2117L14.2601 14.8633L13.0817 13.685C12.9246 13.5332 12.7141 13.4492 12.4956 13.4511C12.2771 13.453 12.0681 13.5406 11.9136 13.6951C11.7591 13.8497 11.6714 14.0587 11.6695 14.2772C11.6676 14.4957 11.7516 14.7062 11.9034 14.8633L13.6117 16.5717C13.6969 16.6568 13.7979 16.7244 13.9092 16.7705C14.0204 16.8166 14.1397 16.8403 14.2601 16.8403C14.3805 16.8403 14.4997 16.8166 14.611 16.7705C14.7222 16.7244 14.8233 16.6568 14.9084 16.5717L18.0901 13.39Z" fill="white"/>
</g>
<defs>
<clipPath id="clip0_616_400">
<rect width="20" height="20" fill="white"/>
</clipPath>
</defs>
</svg>
