<svg width="20" height="20" viewBox="0 0 20 20" fill="none" xmlns="http://www.w3.org/2000/svg">
<g clip-path="url(#clip0_1752_13448)">
<path d="M10.8226 4.78333C11.1428 4.6017 11.3938 4.31918 11.5365 3.97985C11.6793 3.64053 11.7056 3.26349 11.6115 2.9076C11.5174 2.55171 11.3082 2.23698 11.0164 2.01255C10.7246 1.78812 10.3667 1.6666 9.99855 1.66698C9.63043 1.66735 9.27279 1.78959 8.98145 2.01462C8.69011 2.23964 8.48147 2.55479 8.38809 2.91087C8.29471 3.26696 8.32185 3.64393 8.46527 3.98297C8.60869 4.32201 8.86032 4.60402 9.18089 4.785L9.17255 4.8C8.62672 5.93916 7.86839 7.57083 6.69755 8.18333C5.73589 8.68583 4.35589 8.43333 3.33089 8.245C3.31444 8.01192 3.233 7.78812 3.09581 7.59899C2.95861 7.40986 2.77115 7.26296 2.5547 7.17498C2.33824 7.08699 2.10146 7.06143 1.87122 7.1012C1.64098 7.14097 1.42649 7.24448 1.25209 7.39998C1.0777 7.55548 0.950376 7.75674 0.884575 7.98094C0.818775 8.20514 0.817129 8.44329 0.879826 8.66837C0.942522 8.89346 1.06705 9.09646 1.23928 9.25436C1.41151 9.41225 1.62455 9.51871 1.85422 9.56166L4.31089 15.9033C4.49307 16.3735 4.81316 16.7775 5.22913 17.0625C5.6451 17.3474 6.13751 17.4999 6.64172 17.5H13.3584C13.8626 17.4999 14.355 17.3474 14.771 17.0625C15.1869 16.7775 15.507 16.3735 15.6892 15.9033L18.1451 9.56166C18.3733 9.51919 18.5852 9.414 18.757 9.25788C18.9288 9.10176 19.0537 8.90089 19.1178 8.67776C19.1819 8.45463 19.1825 8.21807 19.1197 7.99458C19.0569 7.7711 18.9331 7.56951 18.7622 7.41243C18.5913 7.25534 18.38 7.14895 18.152 7.10518C17.924 7.06141 17.6884 7.082 17.4714 7.16463C17.2545 7.24726 17.0648 7.38866 16.9237 7.57301C16.7826 7.75735 16.6957 7.97734 16.6726 8.20833C15.6234 8.34416 14.2709 8.5175 13.3026 8.01166C12.1551 7.41166 11.3859 5.8925 10.8226 4.78333Z" fill="currentColor"/>
</g>
<defs>
<clipPath id="clip0_1752_13448">
<rect width="20" height="20" fill="currentColor"/>
</clipPath>
</defs>
</svg>
