<svg width="20" height="20" viewBox="0 0 20 20" fill="none" xmlns="http://www.w3.org/2000/svg">
<g clip-path="url(#clip0_1752_13314)">
<path fill-rule="evenodd" clip-rule="evenodd" d="M1.66675 3.33333C1.66675 3.11232 1.75455 2.90036 1.91083 2.74408C2.06711 2.5878 2.27907 2.5 2.50008 2.5H17.5001C17.7211 2.5 17.9331 2.5878 18.0893 2.74408C18.2456 2.90036 18.3334 3.11232 18.3334 3.33333C18.3334 3.55435 18.2456 3.76631 18.0893 3.92259C17.9331 4.07887 17.7211 4.16667 17.5001 4.16667V13.3333C17.5001 13.7754 17.3245 14.1993 17.0119 14.5118C16.6994 14.8244 16.2754 15 15.8334 15H11.6209L13.5317 16.9108C13.6835 17.068 13.7675 17.2785 13.7656 17.497C13.7637 17.7155 13.6761 17.9245 13.5216 18.079C13.3671 18.2335 13.1581 18.3212 12.9396 18.3231C12.7211 18.325 12.5106 18.241 12.3534 18.0892L9.99675 15.7325L7.63925 18.0892C7.48208 18.241 7.27158 18.325 7.05308 18.3231C6.83458 18.3212 6.62557 18.2335 6.47107 18.079C6.31656 17.9245 6.22892 17.7155 6.22702 17.497C6.22512 17.2785 6.30912 17.068 6.46091 16.9108L8.37175 15H4.16675C3.72472 15 3.3008 14.8244 2.98824 14.5118C2.67568 14.1993 2.50008 13.7754 2.50008 13.3333V4.16667C2.27907 4.16667 2.06711 4.07887 1.91083 3.92259C1.75455 3.76631 1.66675 3.55435 1.66675 3.33333ZM13.5359 5.97667C13.6931 5.82487 13.9036 5.74087 14.1221 5.74277C14.3406 5.74467 14.5496 5.83231 14.7041 5.98682C14.8586 6.14132 14.9462 6.35034 14.9481 6.56883C14.95 6.78733 14.866 6.99783 14.7142 7.155L11.1842 10.685C11.0264 10.8428 10.8124 10.9314 10.5892 10.9314C10.3661 10.9314 10.1521 10.8428 9.99425 10.685L8.23342 8.92417L6.46591 10.6908C6.30885 10.8427 6.09841 10.9269 5.87991 10.9252C5.66141 10.9234 5.45233 10.8359 5.29772 10.6815C5.1431 10.5271 5.05531 10.3182 5.05326 10.0997C5.05121 9.88117 5.13506 9.67061 5.28675 9.51333L7.63842 7.16167C7.79625 7.00391 8.01026 6.9153 8.23342 6.9153C8.45657 6.9153 8.67058 7.00391 8.82841 7.16167L10.5892 8.9225L13.5359 5.97667Z" fill="currentColor"/>
</g>
<defs>
<clipPath id="clip0_1752_13314">
<rect width="20" height="20" fill="currentColor"/>
</clipPath>
</defs>
</svg>
