<svg width="20" height="20" viewBox="0 0 20 20" fill="none" xmlns="http://www.w3.org/2000/svg">
<g clip-path="url(#clip0_1752_15124)">
<path d="M17.7734 8.33333C17.8326 8.33334 17.891 8.34593 17.9449 8.37028C17.9988 8.39463 18.0469 8.43018 18.086 8.47456C18.1251 8.51895 18.1543 8.57114 18.1717 8.62769C18.1891 8.68423 18.1942 8.74382 18.1867 8.8025L18.1726 8.86917L15.7642 16.9058C15.7176 17.0615 15.6265 17.2001 15.5021 17.3046C15.3778 17.4091 15.2256 17.475 15.0642 17.4942L14.9667 17.5H3.33341C3.00793 17.5007 2.68942 17.4057 2.41758 17.2267C2.39475 17.1644 2.38732 17.0975 2.39591 17.0317L2.41008 16.9633L4.82175 8.9275C4.86832 8.77199 4.9593 8.63348 5.0835 8.52896C5.20771 8.42444 5.35974 8.35848 5.52091 8.33917L5.62008 8.33333H17.7734ZM7.93341 2.5C8.15798 2.49987 8.38026 2.54513 8.58691 2.63306C8.79355 2.72099 8.98029 2.84977 9.13591 3.01167L9.23591 3.12583L10.4001 4.58333H15.8334C16.2539 4.5832 16.6589 4.74201 16.9672 5.02791C17.2755 5.31382 17.4644 5.7057 17.4959 6.125L17.5001 6.25V6.66667H5.62008C5.10914 6.66666 4.61046 6.82321 4.1912 7.11524C3.77193 7.40726 3.45221 7.82074 3.27508 8.3L3.22508 8.44833L1.66675 13.6417V4.16667C1.66662 3.74619 1.82542 3.34119 2.11133 3.03288C2.39724 2.72456 2.78912 2.5357 3.20841 2.50417L3.33341 2.5H7.93341Z" fill="currentColor"/>
</g>
<defs>
<clipPath id="clip0_1752_15124">
<rect width="20" height="20" fill="currentColor"/>
</clipPath>
</defs>
</svg>
