<svg width="20" height="20" viewBox="0 0 20 20" fill="none" xmlns="http://www.w3.org/2000/svg">
<g clip-path="url(#clip0_1752_15125)">
<path d="M2.50008 5.83333C2.50008 5.3913 2.67568 4.96738 2.98824 4.65482C3.3008 4.34226 3.72472 4.16666 4.16675 4.16666H15.8334C16.2754 4.16666 16.6994 4.34226 17.0119 4.65482C17.3245 4.96738 17.5001 5.3913 17.5001 5.83333V13.3333C17.5001 13.5543 17.4123 13.7663 17.256 13.9226C17.0997 14.0789 16.8878 14.1667 16.6667 14.1667H15.0001V13.3333C15.0001 13.1123 14.9123 12.9004 14.756 12.7441C14.5997 12.5878 14.3878 12.5 14.1667 12.5H10.0001C9.77907 12.5 9.56711 12.5878 9.41083 12.7441C9.25455 12.9004 9.16675 13.1123 9.16675 13.3333V14.1667H3.33341C3.1124 14.1667 2.90044 14.0789 2.74416 13.9226C2.58788 13.7663 2.50008 13.5543 2.50008 13.3333V5.83333ZM2.50008 15C2.27907 15 2.06711 15.0878 1.91083 15.2441C1.75455 15.4004 1.66675 15.6123 1.66675 15.8333C1.66675 16.0543 1.75455 16.2663 1.91083 16.4226C2.06711 16.5789 2.27907 16.6667 2.50008 16.6667H17.5001C17.7211 16.6667 17.9331 16.5789 18.0893 16.4226C18.2456 16.2663 18.3334 16.0543 18.3334 15.8333C18.3334 15.6123 18.2456 15.4004 18.0893 15.2441C17.9331 15.0878 17.7211 15 17.5001 15H2.50008Z" fill="currentColor"/>
</g>
<defs>
<clipPath id="clip0_1752_15125">
<rect width="20" height="20" fill="currentColor"/>
</clipPath>
</defs>
</svg>
