<svg width="20" height="20" viewBox="0 0 20 20" fill="none" xmlns="http://www.w3.org/2000/svg">
<g clip-path="url(#clip0_1752_13325)">
<path fill-rule="evenodd" clip-rule="evenodd" d="M9.99992 1.66666C10.7508 1.66673 11.4796 1.92017 12.0685 2.38597C12.6574 2.85177 13.0719 3.50268 13.2449 4.23333C14.205 4.40813 15.0733 4.91423 15.6985 5.66344C16.3238 6.41265 16.6664 7.35749 16.6666 8.33333V15.8333C16.6666 16.4964 16.4032 17.1323 15.9344 17.6011C15.4655 18.0699 14.8296 18.3333 14.1666 18.3333H5.83325C5.17021 18.3333 4.53433 18.0699 4.06549 17.6011C3.59664 17.1323 3.33325 16.4964 3.33325 15.8333V8.33333C3.33314 7.3574 3.6756 6.4124 4.30092 5.66312C4.92623 4.91384 5.79472 4.40783 6.75492 4.23333C6.9279 3.50268 7.34239 2.85177 7.9313 2.38597C8.5202 1.92017 9.24906 1.66673 9.99992 1.66666ZM12.4999 15H7.49992V16.6667H12.4999V15ZM11.6666 11.6667H8.33325C8.12914 11.6667 7.93214 11.7416 7.77961 11.8773C7.62708 12.0129 7.52963 12.1998 7.50575 12.4025L7.49992 12.5V13.3333H12.4999V12.5C12.4999 12.2959 12.425 12.0989 12.2893 11.9464C12.1537 11.7938 11.9668 11.6964 11.7641 11.6725L11.6666 11.6667ZM10.8333 7.5H9.16658C8.94557 7.5 8.73361 7.58779 8.57733 7.74408C8.42105 7.90036 8.33325 8.11232 8.33325 8.33333C8.33325 8.55434 8.42105 8.76631 8.57733 8.92259C8.73361 9.07887 8.94557 9.16666 9.16658 9.16666H10.8333C11.0543 9.16666 11.2662 9.07887 11.4225 8.92259C11.5788 8.76631 11.6666 8.55434 11.6666 8.33333C11.6666 8.11232 11.5788 7.90036 11.4225 7.74408C11.2662 7.58779 11.0543 7.5 10.8333 7.5ZM9.99992 3.33333C9.70736 3.33334 9.41997 3.41035 9.16661 3.55663C8.91325 3.70291 8.70286 3.91331 8.55658 4.16666H11.4433C11.297 3.91331 11.0866 3.70291 10.8332 3.55663C10.5799 3.41035 10.2925 3.33334 9.99992 3.33333Z" fill="currentColor"/>
</g>
<defs>
<clipPath id="clip0_1752_13325">
<rect width="20" height="20" fill="currentColor"/>
</clipPath>
</defs>
</svg>
