<svg width="24" height="24" viewBox="0 0 24 24" fill="none" xmlns="http://www.w3.org/2000/svg">
<g clip-path="url(#clip0_449_1430)">
<path fill-rule="evenodd" clip-rule="evenodd" d="M19 4.989V6C19.5304 6 20.0391 6.21071 20.4142 6.58579C20.7893 6.96086 21 7.46957 21 8V18C21 18.5304 20.7893 19.0391 20.4142 19.4142C20.0391 19.7893 19.5304 20 19 20H5C4.46957 20 3.96086 19.7893 3.58579 19.4142C3.21071 19.0391 3 18.5304 3 18V8C3 6.955 3.835 6.007 4.813 5.728L15.813 2.585C16.1851 2.47866 16.5768 2.46015 16.9573 2.53093C17.3377 2.60171 17.6966 2.75985 18.0055 2.9929C18.3145 3.22594 18.5651 3.52753 18.7377 3.87391C18.9102 4.22029 19 4.60201 19 4.989ZM15.5 11.5C15.1022 11.5 14.7206 11.658 14.4393 11.9393C14.158 12.2206 14 12.6022 14 13C14 13.3978 14.158 13.7794 14.4393 14.0607C14.7206 14.342 15.1022 14.5 15.5 14.5C15.8978 14.5 16.2794 14.342 16.5607 14.0607C16.842 13.7794 17 13.3978 17 13C17 12.6022 16.842 12.2206 16.5607 11.9393C16.2794 11.658 15.8978 11.5 15.5 11.5ZM17 4.989C17.0001 4.91841 16.9852 4.84861 16.9563 4.7842C16.9274 4.71978 16.8853 4.6622 16.8326 4.61525C16.7798 4.5683 16.7178 4.53305 16.6505 4.51181C16.5832 4.49056 16.5121 4.48381 16.442 4.492L16.362 4.508L11.14 6H17V4.989Z" fill="white"/>
</g>
<defs>
<clipPath id="clip0_449_1430">
<rect width="24" height="24" fill="white"/>
</clipPath>
</defs>
</svg>
