<svg width="20" height="20" viewBox="0 0 20 20" fill="currentColor" xmlns="http://www.w3.org/2000/svg">
<g clip-path="url(#clip0_1750_13299)">
<path d="M11.6667 2.5C12.3298 2.5 12.9657 2.76339 13.4345 3.23223C13.9034 3.70107 14.1667 4.33696 14.1667 5H16.6667C17.1088 5 17.5327 5.17559 17.8453 5.48816C18.1578 5.80072 18.3334 6.22464 18.3334 6.66667V15.8333C18.3334 16.2754 18.1578 16.6993 17.8453 17.0118C17.5327 17.3244 17.1088 17.5 16.6667 17.5H3.33341C2.89139 17.5 2.46746 17.3244 2.1549 17.0118C1.84234 16.6993 1.66675 16.2754 1.66675 15.8333V6.66667C1.66675 6.22464 1.84234 5.80072 2.1549 5.48816C2.46746 5.17559 2.89139 5 3.33341 5H5.83341C5.83341 4.33696 6.09681 3.70107 6.56565 3.23223C7.03449 2.76339 7.67037 2.5 8.33341 2.5H11.6667ZM15.8334 8.33333H4.16675C3.95435 8.33357 3.75005 8.4149 3.59561 8.56071C3.44116 8.70651 3.34822 8.90579 3.33577 9.11783C3.32332 9.32986 3.39231 9.53865 3.52864 9.70153C3.66496 9.8644 3.85833 9.96908 4.06925 9.99417L4.16675 10H9.16675V10.8333C9.16698 11.0457 9.24831 11.25 9.39412 11.4045C9.53993 11.5589 9.73921 11.6519 9.95124 11.6643C10.1633 11.6768 10.3721 11.6078 10.5349 11.4714C10.6978 11.3351 10.8025 11.1417 10.8276 10.9308L10.8334 10.8333V10H15.8334C16.0458 9.99976 16.2501 9.91843 16.4046 9.77263C16.559 9.62682 16.6519 9.42754 16.6644 9.2155C16.6768 9.00347 16.6079 8.79468 16.4715 8.63181C16.3352 8.46893 16.1418 8.36425 15.9309 8.33917L15.8334 8.33333ZM11.6667 4.16667H8.33341C8.1293 4.16669 7.9323 4.24163 7.77977 4.37726C7.62724 4.5129 7.5298 4.69979 7.50591 4.9025L7.50008 5H12.5001C12.5001 4.79589 12.4251 4.59889 12.2895 4.44636C12.1539 4.29383 11.967 4.19638 11.7642 4.1725L11.6667 4.16667Z" fill="currentColor"/>
</g>
<defs>
<clipPath id="clip0_1750_13299">
<rect width="20" height="20" fill="currentColor"/>
</clipPath>
</defs>
</svg>
