<svg width="140" height="31" viewBox="0 0 140 31" fill="none" xmlns="http://www.w3.org/2000/svg">
<g clip-path="url(#clip0_1150_11426)">
<mask id="mask0_1150_11426" style="mask-type:luminance" maskUnits="userSpaceOnUse" x="8" y="-1" width="124" height="32">
<path d="M131.819 -0.00998688H8.17554V30.0834H131.819V-0.00998688Z" fill="white"/>
</mask>
<g mask="url(#mask0_1150_11426)">
<path d="M57.114 24.1176H60.9981L53.92 3.99714H49.4173L42.3392 24.1176H46.2233L47.8827 19.1627H55.4447L57.114 24.1176ZM48.872 16.2264L51.5922 8.12897H51.7468L54.467 16.2264H48.872ZM64.8406 15.2786V24.1176H61.2874V9.03514H64.6876V11.6007H64.8622C65.2131 10.756 65.7684 10.086 66.5316 9.59215C67.2948 9.09833 68.2425 8.85058 69.3648 8.85058C70.4057 8.85058 71.3119 9.07671 72.095 9.52066C72.8682 9.96294 73.4751 10.6131 73.8974 11.4577C74.3297 12.3024 74.5359 13.3233 74.5259 14.5271V24.1176H70.971V15.0625C70.971 14.0532 70.7133 13.2701 70.1879 12.6931C69.6625 12.1261 68.9508 11.8385 68.0347 11.8385C67.4162 11.8385 66.8608 11.9715 66.3753 12.2508C65.8915 12.5185 65.5207 12.9109 65.2413 13.4247C64.9853 13.9302 64.8406 14.547 64.8406 15.2786ZM82.3656 30.0834C81.0886 30.0834 79.9962 29.9088 79.0784 29.5679C78.1622 29.2287 77.4306 28.7648 76.8736 28.1879C76.3166 27.6109 75.9259 26.9724 75.7197 26.2724L78.9238 25.4993C79.0684 25.7986 79.2746 26.0862 79.5523 26.3755C79.8299 26.6632 80.2007 26.9109 80.6646 27.1071C81.1285 27.3033 81.7254 27.3948 82.4371 27.3948C83.4463 27.3948 84.281 27.147 84.9411 26.6632C85.6012 26.1793 85.9304 25.3762 85.9304 24.2622V21.409H85.7558C85.5696 21.7798 85.3019 22.1506 84.9527 22.543C84.6019 22.9337 84.1397 23.253 83.5727 23.5107C82.9957 23.7684 82.2841 23.9014 81.4195 23.9014C80.2656 23.9014 79.2147 23.6237 78.267 23.0767C77.3292 22.5313 76.5777 21.7066 76.0306 20.6242C75.4736 19.5318 75.196 18.1717 75.196 16.524C75.196 14.8762 75.4736 13.4646 76.0306 12.3207C76.5876 11.1767 77.3292 10.3121 78.277 9.71353C79.2247 9.11662 80.2755 8.8273 81.4295 8.8273C82.3157 8.8273 83.0473 8.97196 83.6143 9.26958C84.1912 9.56887 84.6451 9.92968 84.9843 10.3404C85.3235 10.7527 85.5812 11.1435 85.7575 11.5142H85.9537V9.02184H89.457V24.352C89.457 25.6406 89.1477 26.7114 88.5292 27.556C87.9107 28.4007 87.076 29.0292 86.0052 29.4515C84.9311 29.8772 83.7157 30.0834 82.3656 30.0834ZM82.3972 21.1097C83.1487 21.1097 83.7888 20.9235 84.3242 20.5644C84.8496 20.1936 85.262 19.6682 85.5297 18.9881C85.8074 18.2981 85.942 17.4734 85.942 16.5157C85.942 15.5579 85.8074 14.7332 85.5297 14.0233C85.262 13.3116 84.8596 12.7563 84.3342 12.3539C83.8088 11.9615 83.1603 11.757 82.3972 11.757C81.634 11.757 80.9439 11.9632 80.4085 12.3755C79.8831 12.7879 79.4808 13.3549 79.2131 14.0648C78.9454 14.7864 78.8107 15.5995 78.8107 16.5057C78.8107 17.4119 78.9437 18.2366 79.223 18.9266C79.4907 19.6166 79.8931 20.152 80.4285 20.5344C80.9556 20.9135 81.614 21.1097 82.3972 21.1097ZM100.221 17.7727V9.03681H103.776V24.1192H100.324V21.4406H100.17C99.8306 22.2853 99.2736 22.9753 98.4905 23.5107C97.7173 24.0461 96.7596 24.3138 95.6257 24.3138C94.6363 24.3138 93.7601 24.0976 93.0086 23.6537C92.257 23.2114 91.6584 22.5712 91.2361 21.7166C90.8138 20.872 90.5976 19.8411 90.5976 18.6356V9.03348H94.1625V18.0886C94.1625 19.0463 94.4202 19.8095 94.9456 20.3648C95.471 20.9318 96.161 21.2095 97.0057 21.2095C97.5311 21.2095 98.0366 21.0864 98.5304 20.8287C99.0242 20.571 99.4266 20.1903 99.7458 19.6848C100.067 19.1727 100.221 18.5342 100.221 17.7727ZM108.495 3.9988V24.1192H104.94V3.9988H108.495ZM114.14 24.4169C113.182 24.4169 112.326 24.2423 111.564 23.9014C110.801 23.5622 110.194 23.0468 109.762 22.3767C109.32 21.7066 109.102 20.872 109.102 19.8843C109.102 19.0297 109.257 18.328 109.576 17.7727C109.895 17.2157 110.317 16.7734 110.864 16.4342C111.41 16.105 112.018 15.8473 112.708 15.671C113.388 15.4964 114.098 15.3717 114.83 15.2902C115.716 15.1971 116.426 15.1157 116.983 15.0425C117.529 14.971 117.931 14.8463 118.189 14.6917C118.436 14.5271 118.569 14.2793 118.569 13.9401V13.8786C118.569 13.137 118.353 12.5701 117.909 12.1577C117.467 11.7553 116.838 11.5492 116.014 11.5492C115.138 11.5492 114.457 11.7354 113.944 12.1161C113.438 12.4969 113.099 12.9408 112.913 13.4663L109.596 12.9924C109.853 12.0762 110.286 11.3131 110.894 10.6846C111.491 10.066 112.234 9.60379 113.099 9.29452C113.975 8.98526 114.933 8.83063 115.984 8.83063C116.715 8.83063 117.437 8.91377 118.157 9.08835C118.877 9.26293 119.537 9.54227 120.136 9.933C120.733 10.3237 121.206 10.8492 121.577 11.5192C121.938 12.1893 122.123 13.024 122.123 14.0233V24.1192H118.702V22.0475H118.589C118.373 22.4698 118.074 22.8606 117.683 23.2214C117.292 23.5822 116.807 23.8815 116.22 24.0976C115.613 24.3138 114.933 24.4169 114.14 24.4169ZM115.068 21.8114C115.779 21.8114 116.396 21.6667 116.922 21.3891C117.447 21.1014 117.849 20.729 118.137 20.2551C118.426 19.7812 118.559 19.2658 118.559 18.7104V16.928C118.446 17.0211 118.26 17.1026 117.992 17.1857C117.725 17.2689 117.435 17.3304 117.106 17.3919C116.777 17.4534 116.458 17.505 116.138 17.5465C115.819 17.5881 115.542 17.6297 115.304 17.6596C114.778 17.7311 114.295 17.8442 113.882 18.0104C113.46 18.175 113.131 18.4028 112.893 18.6905C112.645 18.9781 112.532 19.3606 112.532 19.8128C112.532 20.4729 112.77 20.9667 113.254 21.2959C113.718 21.6451 114.326 21.8114 115.068 21.8114ZM123.207 24.1176V9.03514H126.658V11.5492H126.813C127.091 10.6729 127.565 10.0045 128.235 9.53063C128.905 9.05676 129.678 8.82065 130.543 8.82065C130.739 8.82065 130.965 8.83063 131.203 8.84061C131.45 8.86056 131.657 8.88217 131.821 8.9121V12.1777C131.667 12.1261 131.43 12.0746 131.11 12.033C130.799 11.9931 130.486 11.9715 130.172 11.9715C129.523 11.9715 128.946 12.1161 128.431 12.3938C127.915 12.6715 127.515 13.0539 127.215 13.5477C126.916 14.0416 126.773 14.6085 126.773 15.247V24.1176H123.207ZM36.1373 4.92493L35.128 20.7805L25.4743 -0.00998688L36.1373 4.92493ZM29.4515 25.4261L22.1572 29.5879L14.8629 25.4261L16.3461 21.8313H27.9684L29.4515 25.4261ZM22.1572 7.88289L25.9798 17.1758H18.3347C18.3347 17.1741 22.1572 7.88289 22.1572 7.88289ZM9.17482 20.7805L8.17554 4.92493L18.8385 -0.00998688L9.17482 20.7805Z" fill="#868686"/>
<path d="M57.114 24.1176H60.9981L53.92 3.99714H49.4173L42.3392 24.1176H46.2233L47.8827 19.1627H55.4447L57.114 24.1176ZM48.872 16.2264L51.5922 8.12897H51.7468L54.467 16.2264H48.872ZM64.8406 15.2786V24.1176H61.2874V9.03514H64.6876V11.6007H64.8622C65.2131 10.756 65.7684 10.086 66.5316 9.59215C67.2948 9.09833 68.2425 8.85058 69.3648 8.85058C70.4057 8.85058 71.3119 9.07671 72.095 9.52066C72.8682 9.96294 73.4751 10.6131 73.8974 11.4577C74.3297 12.3024 74.5359 13.3233 74.5259 14.5271V24.1176H70.971V15.0625C70.971 14.0532 70.7133 13.2701 70.1879 12.6931C69.6625 12.1261 68.9508 11.8385 68.0347 11.8385C67.4162 11.8385 66.8608 11.9715 66.3753 12.2508C65.8915 12.5185 65.5207 12.9109 65.2413 13.4247C64.9853 13.9302 64.8406 14.547 64.8406 15.2786ZM82.3656 30.0834C81.0886 30.0834 79.9962 29.9088 79.0784 29.5679C78.1622 29.2287 77.4306 28.7648 76.8736 28.1879C76.3166 27.6109 75.9259 26.9724 75.7197 26.2724L78.9238 25.4993C79.0684 25.7986 79.2746 26.0862 79.5523 26.3755C79.8299 26.6632 80.2007 26.9109 80.6646 27.1071C81.1285 27.3033 81.7254 27.3948 82.4371 27.3948C83.4463 27.3948 84.281 27.147 84.9411 26.6632C85.6012 26.1793 85.9304 25.3762 85.9304 24.2622V21.409H85.7558C85.5696 21.7798 85.3019 22.1506 84.9527 22.543C84.6019 22.9337 84.1397 23.253 83.5727 23.5107C82.9957 23.7684 82.2841 23.9014 81.4195 23.9014C80.2656 23.9014 79.2147 23.6237 78.267 23.0767C77.3292 22.5313 76.5777 21.7066 76.0306 20.6242C75.4736 19.5318 75.196 18.1717 75.196 16.524C75.196 14.8762 75.4736 13.4646 76.0306 12.3207C76.5876 11.1767 77.3292 10.3121 78.277 9.71353C79.2247 9.11662 80.2755 8.8273 81.4295 8.8273C82.3157 8.8273 83.0473 8.97196 83.6143 9.26958C84.1912 9.56887 84.6451 9.92968 84.9843 10.3404C85.3235 10.7527 85.5812 11.1435 85.7575 11.5142H85.9537V9.02184H89.457V24.352C89.457 25.6406 89.1477 26.7114 88.5292 27.556C87.9107 28.4007 87.076 29.0292 86.0052 29.4515C84.9311 29.8772 83.7157 30.0834 82.3656 30.0834ZM82.3972 21.1097C83.1487 21.1097 83.7888 20.9235 84.3242 20.5644C84.8496 20.1936 85.262 19.6682 85.5297 18.9881C85.8074 18.2981 85.942 17.4734 85.942 16.5157C85.942 15.5579 85.8074 14.7332 85.5297 14.0233C85.262 13.3116 84.8596 12.7563 84.3342 12.3539C83.8088 11.9615 83.1603 11.757 82.3972 11.757C81.634 11.757 80.9439 11.9632 80.4085 12.3755C79.8831 12.7879 79.4808 13.3549 79.2131 14.0648C78.9454 14.7864 78.8107 15.5995 78.8107 16.5057C78.8107 17.4119 78.9437 18.2366 79.223 18.9266C79.4907 19.6166 79.8931 20.152 80.4285 20.5344C80.9556 20.9135 81.614 21.1097 82.3972 21.1097ZM100.221 17.7727V9.03681H103.776V24.1192H100.324V21.4406H100.17C99.8306 22.2853 99.2736 22.9753 98.4905 23.5107C97.7173 24.0461 96.7596 24.3138 95.6257 24.3138C94.6363 24.3138 93.7601 24.0976 93.0086 23.6537C92.257 23.2114 91.6584 22.5712 91.2361 21.7166C90.8138 20.872 90.5976 19.8411 90.5976 18.6356V9.03348H94.1625V18.0886C94.1625 19.0463 94.4202 19.8095 94.9456 20.3648C95.471 20.9318 96.161 21.2095 97.0057 21.2095C97.5311 21.2095 98.0366 21.0864 98.5304 20.8287C99.0242 20.571 99.4266 20.1903 99.7458 19.6848C100.067 19.1727 100.221 18.5342 100.221 17.7727ZM108.495 3.9988V24.1192H104.94V3.9988H108.495ZM114.14 24.4169C113.182 24.4169 112.326 24.2423 111.564 23.9014C110.801 23.5622 110.194 23.0468 109.762 22.3767C109.32 21.7066 109.102 20.872 109.102 19.8843C109.102 19.0297 109.257 18.328 109.576 17.7727C109.895 17.2157 110.317 16.7734 110.864 16.4342C111.41 16.105 112.018 15.8473 112.708 15.671C113.388 15.4964 114.098 15.3717 114.83 15.2902C115.716 15.1971 116.426 15.1157 116.983 15.0425C117.529 14.971 117.931 14.8463 118.189 14.6917C118.436 14.5271 118.569 14.2793 118.569 13.9401V13.8786C118.569 13.137 118.353 12.5701 117.909 12.1577C117.467 11.7553 116.838 11.5492 116.014 11.5492C115.138 11.5492 114.457 11.7354 113.944 12.1161C113.438 12.4969 113.099 12.9408 112.913 13.4663L109.596 12.9924C109.853 12.0762 110.286 11.3131 110.894 10.6846C111.491 10.066 112.234 9.60379 113.099 9.29452C113.975 8.98526 114.933 8.83063 115.984 8.83063C116.715 8.83063 117.437 8.91377 118.157 9.08835C118.877 9.26293 119.537 9.54227 120.136 9.933C120.733 10.3237 121.206 10.8492 121.577 11.5192C121.938 12.1893 122.123 13.024 122.123 14.0233V24.1192H118.702V22.0475H118.589C118.373 22.4698 118.074 22.8606 117.683 23.2214C117.292 23.5822 116.807 23.8815 116.22 24.0976C115.613 24.3138 114.933 24.4169 114.14 24.4169ZM115.068 21.8114C115.779 21.8114 116.396 21.6667 116.922 21.3891C117.447 21.1014 117.849 20.729 118.137 20.2551C118.426 19.7812 118.559 19.2658 118.559 18.7104V16.928C118.446 17.0211 118.26 17.1026 117.992 17.1857C117.725 17.2689 117.435 17.3304 117.106 17.3919C116.777 17.4534 116.458 17.505 116.138 17.5465C115.819 17.5881 115.542 17.6297 115.304 17.6596C114.778 17.7311 114.295 17.8442 113.882 18.0104C113.46 18.175 113.131 18.4028 112.893 18.6905C112.645 18.9781 112.532 19.3606 112.532 19.8128C112.532 20.4729 112.77 20.9667 113.254 21.2959C113.718 21.6451 114.326 21.8114 115.068 21.8114ZM123.207 24.1176V9.03514H126.658V11.5492H126.813C127.091 10.6729 127.565 10.0045 128.235 9.53063C128.905 9.05676 129.678 8.82065 130.543 8.82065C130.739 8.82065 130.965 8.83063 131.203 8.84061C131.45 8.86056 131.657 8.88217 131.821 8.9121V12.1777C131.667 12.1261 131.43 12.0746 131.11 12.033C130.799 11.9931 130.486 11.9715 130.172 11.9715C129.523 11.9715 128.946 12.1161 128.431 12.3938C127.915 12.6715 127.515 13.0539 127.215 13.5477C126.916 14.0416 126.773 14.6085 126.773 15.247V24.1176H123.207ZM36.1373 4.92493L35.128 20.7805L25.4743 -0.00998688L36.1373 4.92493ZM29.4515 25.4261L22.1572 29.5879L14.8629 25.4261L16.3461 21.8313H27.9684L29.4515 25.4261ZM22.1572 7.88289L25.9798 17.1758H18.3347C18.3347 17.1741 22.1572 7.88289 22.1572 7.88289ZM9.17482 20.7805L8.17554 4.92493L18.8385 -0.00998688L9.17482 20.7805Z" fill="#868686"/>
</g>
</g>
<defs>
<clipPath id="clip0_1150_11426">
<rect width="140" height="30.095" fill="white"/>
</clipPath>
</defs>
</svg>
