<svg width="55" height="33" viewBox="0 0 55 33" fill="none" xmlns="http://www.w3.org/2000/svg">
<g clip-path="url(#clip0_1150_11429)">
<path d="M15.6781 11.7053C15.6781 12.3686 15.7498 12.9063 15.8753 13.3007C16.0187 13.6951 16.198 14.1253 16.4489 14.5913C16.5386 14.7347 16.5744 14.8781 16.5744 15.0036C16.5744 15.1829 16.4669 15.3621 16.2338 15.5414L15.1045 16.2943C14.9432 16.4018 14.7819 16.4556 14.6385 16.4556C14.4592 16.4556 14.2799 16.366 14.1007 16.2046C13.8497 15.9357 13.6346 15.6489 13.4554 15.3621C13.2761 15.0574 13.0969 14.7168 12.8997 14.3045C11.5015 15.9537 9.7448 16.7782 7.6296 16.7782C6.12386 16.7782 4.92285 16.348 4.0445 15.4876C3.16615 14.6272 2.71802 13.48 2.71802 12.0459C2.71802 10.5223 3.25578 9.2854 4.34924 8.35327C5.44269 7.42115 6.89465 6.95508 8.74098 6.95508C9.35044 6.95508 9.97783 7.00886 10.6411 7.09849C11.3043 7.18812 11.9855 7.33152 12.7025 7.49285V6.18429C12.7025 4.82195 12.4157 3.8719 11.86 3.31621C11.2864 2.76052 10.3184 2.49164 8.93816 2.49164C8.31076 2.49164 7.66545 2.56334 7.00221 2.72467C6.33896 2.886 5.69365 3.08318 5.06625 3.33414C4.77945 3.45962 4.56434 3.53132 4.43886 3.56717C4.31338 3.60302 4.22376 3.62095 4.15206 3.62095C3.9011 3.62095 3.77562 3.44169 3.77562 3.06526V2.18691C3.77562 1.9001 3.81147 1.68499 3.9011 1.55952C3.99073 1.43404 4.15206 1.30856 4.40301 1.18308C5.0304 0.860423 5.78327 0.591541 6.66162 0.376435C7.53997 0.143404 8.47209 0.0358509 9.45799 0.0358509C11.5911 0.0358509 13.1506 0.519839 14.1545 1.48781C15.1404 2.45579 15.6423 3.92568 15.6423 5.89748V11.7053H15.6781ZM8.40039 14.43C8.99193 14.43 9.6014 14.3225 10.2467 14.1073C10.892 13.8922 11.4656 13.4979 11.9496 12.9601C12.2364 12.6195 12.4515 12.2431 12.5591 11.8129C12.6667 11.3827 12.7384 10.8628 12.7384 10.2534V9.5005C12.2185 9.37502 11.6628 9.26747 11.0892 9.19577C10.5156 9.12407 9.95991 9.08822 9.40422 9.08822C8.20321 9.08822 7.32486 9.32125 6.73332 9.80523C6.14178 10.2892 5.85498 10.9704 5.85498 11.8667C5.85498 12.7092 6.07008 13.3366 6.51822 13.7668C6.94843 14.2149 7.57582 14.43 8.40039 14.43ZM22.7945 16.366C22.4719 16.366 22.2568 16.3122 22.1134 16.1867C21.97 16.0792 21.8445 15.8282 21.7369 15.4876L17.5245 1.63122C17.4169 1.27271 17.3631 1.03968 17.3631 0.914199C17.3631 0.627392 17.5065 0.466062 17.7933 0.466062H19.55C19.8906 0.466062 20.1237 0.519839 20.2491 0.645317C20.3925 0.75287 20.5001 1.00383 20.6076 1.34441L23.6191 13.2111L26.4155 1.34441C26.5051 0.985901 26.6127 0.75287 26.7561 0.645317C26.8995 0.537764 27.1504 0.466062 27.4731 0.466062H28.9071C29.2477 0.466062 29.4807 0.519839 29.6241 0.645317C29.7676 0.75287 29.893 1.00383 29.9647 1.34441L32.797 13.3545L35.8981 1.34441C36.0056 0.985901 36.1311 0.75287 36.2566 0.645317C36.4 0.537764 36.633 0.466062 36.9557 0.466062H38.6227C38.9095 0.466062 39.0709 0.609466 39.0709 0.914199C39.0709 1.00383 39.0529 1.09345 39.035 1.20101C39.0171 1.30856 38.9812 1.45196 38.9095 1.64914L34.5895 15.5055C34.482 15.864 34.3565 16.0971 34.2131 16.2046C34.0697 16.3122 33.8366 16.3839 33.5319 16.3839H31.9903C31.6497 16.3839 31.4167 16.3301 31.2733 16.2046C31.1299 16.0792 31.0044 15.8461 30.9327 15.4876L28.1543 3.92568L25.3937 15.4697C25.3041 15.8282 25.1966 16.0612 25.0532 16.1867C24.9098 16.3122 24.6588 16.366 24.3361 16.366H22.7945ZM45.8288 16.8499C44.8967 16.8499 43.9645 16.7424 43.0683 16.5273C42.172 16.3122 41.4729 16.0792 41.0068 15.8103C40.72 15.6489 40.5228 15.4697 40.4511 15.3084C40.3794 15.147 40.3436 14.9678 40.3436 14.8064V13.8922C40.3436 13.5158 40.487 13.3366 40.7559 13.3366C40.8634 13.3366 40.971 13.3545 41.0785 13.3903C41.1861 13.4262 41.3474 13.4979 41.5267 13.5696C42.1361 13.8385 42.7994 14.0536 43.4985 14.197C44.2155 14.3404 44.9146 14.4121 45.6316 14.4121C46.7609 14.4121 47.6393 14.2149 48.2487 13.8205C48.8582 13.4262 49.1808 12.8526 49.1808 12.1176C49.1808 11.6157 49.0195 11.2034 48.6969 10.8628C48.3742 10.5223 47.7647 10.2175 46.8864 9.93071L44.2872 9.12407C42.9786 8.71178 42.0107 8.10231 41.4191 7.29567C40.8276 6.50695 40.5228 5.6286 40.5228 4.69647C40.5228 3.9436 40.6842 3.28036 41.0068 2.70675C41.3295 2.13313 41.7597 1.63122 42.2975 1.23686C42.8352 0.824572 43.4447 0.519839 44.1617 0.304733C44.8787 0.0896273 45.6316 0 46.4203 0C46.8147 0 47.227 0.0179255 47.6213 0.0717019C48.0336 0.125478 48.41 0.19718 48.7865 0.268882C49.145 0.358509 49.4856 0.448137 49.8082 0.55569C50.1309 0.663243 50.3818 0.770795 50.5611 0.878348C50.8121 1.02175 50.9913 1.16516 51.0989 1.32649C51.2064 1.46989 51.2602 1.66707 51.2602 1.91803V2.76052C51.2602 3.13696 51.1168 3.33414 50.8479 3.33414C50.7045 3.33414 50.4715 3.26244 50.1667 3.11903C49.145 2.65297 47.9978 2.41994 46.7251 2.41994C45.7033 2.41994 44.8967 2.58127 44.341 2.92185C43.7853 3.26244 43.4985 3.78227 43.4985 4.51722C43.4985 5.01913 43.6777 5.44934 44.0362 5.78993C44.3947 6.13051 45.058 6.4711 46.008 6.77583L48.5534 7.58248C49.8441 7.99476 50.7762 8.56838 51.3319 9.30332C51.8876 10.0383 52.1565 10.8808 52.1565 11.8129C52.1565 12.5837 51.9951 13.2828 51.6904 13.8922C51.3677 14.5017 50.9375 15.0395 50.3818 15.4697C49.8262 15.9178 49.1629 16.2405 48.3921 16.4735C47.5855 16.7245 46.743 16.8499 45.8288 16.8499Z" fill="#B9B9B9"/>
<path fill-rule="evenodd" clip-rule="evenodd" d="M49.2167 25.5617C43.3193 29.9176 34.7509 32.23 27.3835 32.23C17.0584 32.23 7.75512 28.4119 0.728333 22.0663C0.172644 21.5643 0.674557 20.8832 1.3378 21.2775C8.9382 25.6872 18.3132 28.3581 28.0109 28.3581C34.5537 28.3581 41.7418 26.9958 48.3563 24.1994C49.3422 23.7513 50.1847 24.8447 49.2167 25.5617Z" fill="#B9B9B9"/>
<path fill-rule="evenodd" clip-rule="evenodd" d="M51.6725 22.7653C50.9197 21.7974 46.6893 22.2993 44.7712 22.5323C44.1976 22.604 44.108 22.1021 44.6278 21.7257C47.9978 19.3595 53.5368 20.0407 54.1821 20.8294C54.8274 21.636 54.0029 27.175 50.848 29.828C50.364 30.2403 49.8979 30.0252 50.113 29.4874C50.83 27.7128 52.4254 23.7154 51.6725 22.7653Z" fill="#B9B9B9"/>
</g>
<defs>
<clipPath id="clip0_1150_11429">
<rect width="55" height="32.23" fill="white"/>
</clipPath>
</defs>
</svg>
