<svg width="130" height="37" viewBox="0 0 130 37" fill="none" xmlns="http://www.w3.org/2000/svg">
<path d="M9.23915 25.4664C8.07194 25.4664 7.01084 24.5114 7.01084 23.3442C7.01084 22.177 7.96583 21.222 9.23915 21.222C10.5125 21.222 11.4675 22.177 11.4675 23.3442C11.4675 24.5114 10.4064 25.4664 9.23915 25.4664ZM36.6156 13.9004C36.4033 12.2027 35.3422 10.8232 33.9628 9.76213L33.4323 9.33769L33.0078 9.86825C32.1589 10.8232 31.8406 12.521 31.9467 13.7943C32.0528 14.7493 32.3712 15.7043 32.9017 16.4471C32.4773 16.6593 31.9467 16.8715 31.5223 17.0837C30.5673 17.4021 29.6123 17.5082 28.6573 17.5082H1.17478L1.06867 18.1448C0.856451 20.1609 1.17478 22.2831 2.02366 24.1931L2.4481 24.9359V25.042C4.99475 29.2864 9.55748 31.1964 14.5447 31.1964C24.0946 31.1964 31.9467 27.0581 35.6606 18.1448C38.1011 18.2509 40.5416 17.6143 41.7089 15.2799L42.0272 14.7493L41.4966 14.431C40.1172 13.5821 38.2072 13.476 36.6156 13.9004ZM22.9274 12.2027H18.7891V16.341H22.9274V12.2027ZM22.9274 7.00327H18.7891V11.1416H22.9274V7.00327ZM22.9274 1.69776H18.7891V5.83606H22.9274V1.69776ZM28.0206 12.2027H23.8823V16.341H28.0206V12.2027ZM12.6347 12.2027H8.49638V16.341H12.6347V12.2027ZM17.8341 12.2027H13.6958V16.341H17.8341V12.2027ZM7.54139 12.2027H3.40309V16.341H7.54139V12.2027ZM17.8341 7.00327H13.6958V11.1416H17.8341V7.00327ZM12.6347 7.00327H8.49638V11.1416H12.6347V7.00327Z" fill="#B9B9B9"/>
<mask id="mask0_1150_11430" style="mask-type:luminance" maskUnits="userSpaceOnUse" x="1" y="1" width="42" height="31">
<path d="M9.23915 25.4664C8.07194 25.4664 7.01084 24.5114 7.01084 23.3442C7.01084 22.177 7.96583 21.222 9.23915 21.222C10.5125 21.222 11.4675 22.177 11.4675 23.3442C11.4675 24.5114 10.4064 25.4664 9.23915 25.4664ZM36.6156 13.9004C36.4033 12.2027 35.3422 10.8232 33.9628 9.76213L33.4323 9.33769L33.0078 9.86825C32.1589 10.8232 31.8406 12.521 31.9467 13.7943C32.0528 14.7493 32.3712 15.7043 32.9017 16.4471C32.4773 16.6593 31.9467 16.8715 31.5223 17.0837C30.5673 17.4021 29.6123 17.5082 28.6573 17.5082H1.17478L1.06867 18.1448C0.856451 20.1609 1.17478 22.2831 2.02366 24.1931L2.4481 24.9359V25.042C4.99475 29.2864 9.55748 31.1964 14.5447 31.1964C24.0946 31.1964 31.9467 27.0581 35.6606 18.1448C38.1011 18.2509 40.5416 17.6143 41.7089 15.2799L42.0272 14.7493L41.4966 14.431C40.1172 13.5821 38.2072 13.476 36.6156 13.9004ZM22.9274 12.2027H18.7891V16.341H22.9274V12.2027ZM22.9274 7.00327H18.7891V11.1416H22.9274V7.00327ZM22.9274 1.69776H18.7891V5.83606H22.9274V1.69776ZM28.0206 12.2027H23.8823V16.341H28.0206V12.2027ZM12.6347 12.2027H8.49638V16.341H12.6347V12.2027ZM17.8341 12.2027H13.6958V16.341H17.8341V12.2027ZM7.54139 12.2027H3.40309V16.341H7.54139V12.2027ZM17.8341 7.00327H13.6958V11.1416H17.8341V7.00327ZM12.6347 7.00327H8.49638V11.1416H12.6347V7.00327Z" fill="white"/>
</mask>
<g mask="url(#mask0_1150_11430)">
<path d="M-51.7742 -22.2831H1300.92V138.368H-51.7742V-22.2831Z" fill="#B9B9B9"/>
</g>
<path d="M108.134 22.9198C109.938 21.3281 111.741 19.8426 113.545 18.2509C114.182 17.7204 114.819 17.1898 115.455 16.5532C114.925 15.9165 114.182 15.4921 113.439 15.1738C112.06 14.6432 110.68 14.8554 109.301 15.5982C107.603 16.5532 106.86 18.1448 106.967 20.0548C106.967 20.7976 107.179 21.5404 107.603 22.177C107.922 22.4954 108.028 22.7076 108.134 22.9198ZM110.256 24.4053C111.105 24.7237 112.166 24.7237 113.121 24.5114C113.545 24.2992 114.819 23.7687 115.243 23.8748H115.455C115.774 23.9809 115.986 24.1931 116.092 24.5114C116.41 25.1481 116.304 25.7848 115.668 26.1031L115.455 26.2092C113.121 27.5886 110.68 27.3764 108.346 26.1031C107.285 25.4664 106.436 24.6176 105.799 23.5565L105.693 23.3442C104.208 20.7976 104.42 18.0387 106.118 15.5982C106.648 14.7493 107.497 14.1127 108.346 13.5821L108.664 13.3699C110.893 12.0966 113.227 12.2027 115.455 13.2638C116.623 13.9004 117.684 14.7493 118.32 15.9165L118.426 16.1287C118.957 16.9776 118.32 17.7204 117.578 18.2509L115.349 20.1609C113.439 21.6465 111.848 23.0259 110.256 24.4053ZM127.552 12.7332H127.764C128.507 12.7332 129.037 13.2638 129.037 14.0065C129.037 15.0676 128.082 15.2799 127.234 15.2799C126.172 15.2799 125.111 15.9165 124.369 16.6593C123.414 17.6143 122.989 18.7815 122.989 20.0548V25.997C122.989 26.6337 122.565 27.2703 121.822 27.2703H121.61C120.867 27.2703 120.443 26.7398 120.443 25.997V19.7365C120.443 17.296 121.61 15.386 123.52 14.0065C124.899 13.1577 126.172 12.7332 127.552 12.7332ZM97.2044 16.8715L100.069 14.0065C100.388 13.7943 101.343 12.6271 101.767 12.6271H102.192C102.722 12.7332 103.147 13.0516 103.147 13.6882V13.9004C103.147 14.3249 102.616 14.7493 102.404 15.0676C101.873 15.7043 101.237 16.2349 100.706 16.8715L97.735 19.8426L101.555 23.6626L102.616 24.7237L103.04 25.1481C103.147 25.3603 103.253 25.4664 103.253 25.6787V25.997C103.147 26.5275 102.722 26.952 102.192 26.952H101.979C101.555 26.952 101.13 26.5275 100.812 26.2092C100.282 25.6787 99.6449 25.1481 99.1144 24.5114L97.2044 22.7076V25.6787C97.2044 26.3153 96.78 26.952 96.0372 26.952H95.825C95.0822 26.952 94.6578 26.4214 94.6578 25.6787V9.3377C94.6578 8.70103 95.0822 8.17048 95.825 8.17048H96.0372C96.78 8.17048 97.2044 8.70103 97.2044 9.3377V16.8715ZM89.3522 15.2799C89.0339 15.0676 88.2912 15.0676 87.8667 15.0676C85.8506 14.9615 84.3651 16.1287 83.5162 17.9326C83.1979 18.5693 83.0918 19.2059 83.0918 19.9487C83.0918 22.0709 84.1529 23.5565 86.0628 24.4053C86.6995 24.7237 87.6545 24.8298 88.3973 24.8298C89.0339 24.8298 89.9889 24.4053 90.5195 24.1931H91.05C91.5806 24.2992 92.005 24.6176 92.005 25.2542V25.4664C92.005 26.952 89.2461 27.2703 88.2911 27.3764C84.6834 27.5886 81.9245 25.5725 80.8634 22.177C80.6512 21.5404 80.6512 21.0098 80.6512 20.3732V19.8426C80.6512 17.1898 81.9245 15.0676 84.259 13.7943C85.3201 13.1577 86.4873 12.8393 87.7606 12.8393H88.2911C89.5645 12.8393 90.8378 13.1577 91.8989 13.9004L92.005 14.0065L92.1111 14.1127C92.2172 14.3249 92.3233 14.5371 92.3233 14.7493V14.9615C92.3233 15.5982 91.8989 15.9165 91.2622 16.0226H91.1561C90.4134 15.8104 89.5645 15.386 89.3522 15.2799ZM67.0691 19.8426C67.0691 21.6465 68.0241 23.0259 69.5097 23.9809C70.2524 24.4053 71.1013 24.6176 71.9502 24.6176C73.7541 24.6176 75.1335 23.6626 76.0885 22.177C76.5129 21.4343 76.7251 20.5854 76.7251 19.7365C76.7251 18.0387 75.8763 16.6593 74.4968 15.7043C73.7541 15.1738 72.7991 14.9615 71.9502 14.9615C69.9341 14.9615 68.4486 16.0226 67.5997 17.8265C67.0691 18.5693 67.0691 19.2059 67.0691 19.8426ZM71.5258 12.6271H71.8441C74.709 12.6271 76.8313 14.0065 78.2107 16.4471C78.7412 17.4021 79.0596 18.4632 79.0596 19.6304V20.1609C79.0596 22.8137 77.7862 24.9359 75.4518 26.2092C74.3907 26.8459 73.2235 27.1642 71.9502 27.1642H71.4196C68.7669 27.1642 66.6447 25.8909 65.3714 23.5565C64.7347 22.4954 64.4164 21.3281 64.4164 20.0548V19.5243C64.4164 16.8715 65.6897 14.7493 68.0241 13.476C69.1913 12.9454 70.2524 12.6271 71.5258 12.6271ZM50.9404 19.8426C50.9404 21.7526 51.8954 23.2381 53.5931 24.087C54.2298 24.4053 54.9726 24.6176 55.8214 24.6176C57.7314 24.6176 59.1109 23.7687 60.0659 22.177C60.4903 21.4343 60.7025 20.5854 60.7025 19.7365C60.7025 18.0387 59.9597 16.7654 58.5803 15.8104C57.7314 15.2799 56.8825 14.9615 55.8214 14.9615C53.8054 14.9615 52.3198 16.0226 51.4709 17.8265C51.1526 18.5693 50.9404 19.2059 50.9404 19.8426ZM60.7025 14.431V9.23159C60.7025 8.59492 61.127 7.95826 61.8697 7.95826H62.0819C62.8247 7.95826 63.2492 8.48881 63.2492 9.23159V20.1609C63.2492 22.8137 61.9758 24.9359 59.6414 26.2092C58.5803 26.8459 57.4131 27.1642 56.1398 27.1642H55.6092C52.9565 27.1642 50.8343 25.8909 49.5609 23.5565C48.9243 22.4954 48.606 21.3281 48.606 20.0548V19.5243C48.606 16.8715 49.8793 14.7493 52.2137 13.476C53.2748 12.8393 54.442 12.521 55.7153 12.521H56.2459C57.8375 12.6271 59.4292 13.2638 60.7025 14.431Z" fill="#B9B9B9"/>
</svg>
