<svg width="50" height="50" viewBox="0 0 50 50" fill="none" xmlns="http://www.w3.org/2000/svg">
<g clip-path="url(#clip0_1150_11431)">
<path d="M24.7524 9.26458C22.4421 10.8895 19.8236 12.7312 18.4206 15.7782C15.9837 21.0941 23.4071 26.8927 23.7244 27.1369C23.7981 27.1937 23.8864 27.222 23.9744 27.222C24.0679 27.222 24.1614 27.19 24.2374 27.1264C24.3848 27.0031 24.4266 26.7938 24.3381 26.6232C24.3112 26.5715 21.6466 21.3957 21.7456 17.6826C21.7806 16.3893 23.5905 14.9222 25.5065 13.369C27.2614 11.9463 29.2507 10.3339 30.4146 8.44769C32.9697 4.29572 30.1298 0.213084 30.1008 0.172263C29.988 0.013864 29.7798 -0.0434604 29.6018 0.0345672C29.4239 0.113083 29.3254 0.305369 29.366 0.495506C29.3718 0.522557 29.924 3.22237 28.3873 6.00393C27.7543 7.15335 26.3633 8.13167 24.7524 9.26458Z" fill="#B9B9B9"/>
<path d="M34.4862 11.0954C34.6491 10.9727 34.697 10.7488 34.5985 10.5701C34.4997 10.3913 34.2849 10.3125 34.0941 10.385C33.7016 10.5342 24.4831 14.0876 24.4831 18.3811C24.4831 21.3408 25.7474 22.9043 26.6705 24.0461C27.0326 24.4939 27.3452 24.8807 27.4482 25.2108C27.7383 26.1623 27.0512 27.882 26.7622 28.4645C26.6789 28.6318 26.7197 28.8348 26.8614 28.957C26.938 29.0232 27.0336 29.0567 27.1293 29.0567C27.2107 29.0567 27.2926 29.0325 27.3633 28.9833C27.5218 28.8732 31.237 26.2464 30.5707 23.0816C30.3225 21.8787 29.7314 20.9998 29.2098 20.2242C28.4018 19.0225 27.8182 18.1546 28.7035 16.5514C29.7408 14.6815 34.4386 11.131 34.4862 11.0954Z" fill="#B9B9B9"/>
<path d="M10.4901 29.1247C10.3321 29.5979 10.4067 30.0672 10.7056 30.4824C11.7049 31.8699 15.2447 32.6337 20.6732 32.6337C20.6735 32.6337 20.6737 32.6337 20.6739 32.6337C21.4095 32.6337 22.186 32.6193 22.9815 32.5908C31.6607 32.2801 34.8798 29.5762 35.0127 29.4613C35.1574 29.336 35.196 29.1274 35.1061 28.9586C35.0161 28.79 34.822 28.7052 34.6366 28.7563C31.5798 29.5908 25.8721 29.8871 21.9131 29.8871C17.4831 29.8871 15.227 29.568 14.6747 29.3323C14.9581 28.9432 16.7061 28.2483 18.8723 27.8222C19.0793 27.7816 19.2216 27.5903 19.2011 27.3804C19.1806 27.1704 19.0042 27.0103 18.7932 27.0103C17.5234 27.0103 11.1557 27.1122 10.4901 29.1247Z" fill="#868686"/>
<path d="M39.5326 26.3398C37.7424 26.3398 36.0449 27.237 35.9734 27.275C35.8079 27.3637 35.7239 27.5535 35.7693 27.736C35.8149 27.9181 35.9787 28.0461 36.1665 28.0463C36.2044 28.0463 39.985 28.0773 40.3274 30.2373C40.6307 32.1008 36.7503 35.1202 35.2295 36.1264C35.0653 36.2351 35.0015 36.4451 35.0778 36.6267C35.1427 36.7813 35.2932 36.878 35.4555 36.878C35.4838 36.878 35.5125 36.875 35.5411 36.869C35.902 36.7917 44.3698 34.9257 43.4745 29.9955C42.9283 26.974 41.0293 26.3398 39.5326 26.3398Z" fill="#868686"/>
<path d="M33.7254 35.5231C33.7549 35.3652 33.6892 35.2045 33.5578 35.1123L31.5274 33.6901C31.4284 33.6207 31.3033 33.599 31.187 33.6297C31.1659 33.6351 29.0426 34.1933 25.96 34.5356C24.7365 34.6728 23.3662 34.7453 21.9969 34.7453C18.915 34.7453 16.9 34.3831 16.6065 34.1175C16.5677 34.0429 16.58 34.009 16.5869 33.9902C16.6402 33.8419 16.926 33.6658 17.1101 33.596C17.3136 33.5207 17.4232 33.2998 17.3599 33.0924C17.2969 32.8847 17.0829 32.7625 16.8718 32.8132C14.835 33.3047 13.8391 33.992 13.9116 34.856C14.0403 36.3878 17.5884 37.1741 20.5879 37.3819C21.0192 37.4114 21.4857 37.4263 21.9741 37.4263C21.9744 37.4263 21.9746 37.4263 21.9749 37.4263C26.9626 37.4263 33.3568 35.8614 33.4206 35.8455C33.5768 35.8074 33.6958 35.6813 33.7254 35.5231Z" fill="#868686"/>
<path d="M18.4182 38.8106C18.572 38.7106 18.6402 38.5205 18.5856 38.3454C18.5312 38.1703 18.3674 38.0552 18.1835 38.0577C17.9105 38.0649 15.5126 38.1731 15.3448 39.6998C15.294 40.156 15.4247 40.5729 15.7333 40.9386C16.5943 41.959 18.9183 42.5654 22.837 42.7926C23.3006 42.8204 23.7715 42.8343 24.2368 42.8343C29.2188 42.8343 32.574 41.2745 32.7146 41.2081C32.8508 41.1436 32.9406 41.0097 32.9487 40.8593C32.9567 40.709 32.8816 40.5663 32.753 40.4877L30.1871 38.9212C30.0981 38.8669 29.9915 38.849 29.8899 38.8698C29.8737 38.8732 28.2445 39.2111 25.7858 39.5449C25.3206 39.6082 24.738 39.6403 24.0544 39.6403C21.5983 39.6403 18.8665 39.239 18.3425 38.9762C18.3349 38.9272 18.3446 38.8649 18.4182 38.8106Z" fill="#868686"/>
<path d="M21.9149 47.5441C33.3265 47.5345 39.4512 45.5051 40.6311 44.228C41.0488 43.7762 41.0939 43.3485 41.0585 43.0691C40.9708 42.3816 40.3445 41.9607 40.2735 41.915C40.1022 41.8049 39.8723 41.8337 39.7387 41.9878C39.6054 42.1419 39.6023 42.3671 39.7361 42.5211C39.8081 42.6136 39.8497 42.7686 39.6392 42.9793C39.1675 43.4198 34.4102 44.757 26.4892 45.1588C25.4041 45.2151 24.266 45.2438 23.1067 45.244C16.0146 45.244 10.8243 44.2725 10.1429 43.7065C10.4055 43.3292 12.2415 42.7263 14.1939 42.3853C14.4139 42.3469 14.5626 42.1396 14.5285 41.9189C14.4944 41.6983 14.291 41.5465 14.0686 41.5753C14.0135 41.5828 13.8266 41.5939 13.6102 41.6072C10.3887 41.8039 6.66595 42.2423 6.47171 43.9021C6.41272 44.4079 6.56302 44.8671 6.91859 45.2667C7.78861 46.2442 10.2893 47.5439 21.9145 47.5439C21.9147 47.5441 21.9147 47.5441 21.9149 47.5441Z" fill="#868686"/>
<path d="M42.8725 44.5879C42.7112 44.5133 42.5206 44.551 42.4003 44.6808C42.3836 44.6989 40.6678 46.493 35.5092 47.5465C33.5343 47.9422 29.8273 48.1429 24.491 48.1429C19.1448 48.1429 14.0576 47.9325 14.0069 47.9304C13.7944 47.92 13.6127 48.0745 13.5838 48.2837C13.5547 48.4927 13.6895 48.6897 13.8947 48.7386C13.9476 48.7511 19.279 50.0001 26.5685 50.0001C30.0647 50.0001 33.4668 49.7162 36.6806 49.1559C42.6729 48.1054 43.0925 45.1341 43.1074 45.0081C43.1283 44.832 43.0336 44.6625 42.8725 44.5879Z" fill="#868686"/>
</g>
<defs>
<clipPath id="clip0_1150_11431">
<rect width="50" height="50" fill="white"/>
</clipPath>
</defs>
</svg>
