<svg width="120" height="36" viewBox="0 0 120 36" fill="none" xmlns="http://www.w3.org/2000/svg">
<g clip-path="url(#clip0_1150_11428)">
<path d="M24.5154 7.31728C18.497 7.31728 14.4479 10.7774 14.4479 17.6056V21.7651C15.0736 21.4891 15.7362 21.3418 16.4172 21.305C17.0982 21.2866 17.7792 21.4338 18.3865 21.7651V17.6056C18.3865 13.2069 20.816 10.8878 24.4786 10.8878C28.1411 10.8878 30.5706 13.2069 30.5706 17.6056V28.2437H34.5092V17.6056C34.5092 10.7774 30.4417 7.31728 24.4601 7.31728M36.6442 18.0473C36.6442 11.8081 41.1534 7.29888 47.6319 7.29888C54.1105 7.29888 58.4908 11.8265 58.4908 18.0473V19.4461H40.8037C41.2638 22.8142 44.227 25.2805 47.6319 25.1148C50.3006 25.1148 52.1411 24.305 53.3006 22.5749H57.6074C55.9878 26.3848 52.2884 28.8142 47.5583 28.8142C41.1902 28.8142 36.6994 24.305 36.6994 18.0657M54.497 16.0228C53.7608 12.894 50.8712 10.759 47.6687 10.943C44.4847 10.7774 41.6503 12.9124 40.9694 16.0228H54.497ZM60.6626 18.0473C60.6626 11.8265 65.2086 7.29888 71.6871 7.29888C77.5215 7.05961 82.4356 11.6056 82.6749 17.44C82.6749 17.6424 82.6933 17.8449 82.6749 18.0473C82.6749 24.305 78.1657 28.7958 71.6871 28.7958C65.2086 28.7958 60.6626 24.305 60.6626 18.0473ZM78.5706 18.0473C78.7914 14.3664 75.9755 11.2191 72.2945 10.9983C72.0368 10.9799 71.7792 10.9799 71.5215 10.9983C67.7669 10.851 64.6197 13.759 64.4724 17.5136C64.4724 17.6976 64.4724 17.8633 64.4724 18.0473C64.2516 21.7283 67.0675 24.894 70.7485 25.0964C71.0062 25.1148 71.2638 25.1148 71.5215 25.0964C75.8098 25.2253 78.5706 22.2253 78.5706 18.0473ZM105.092 32.4032H105.552C108.092 32.4032 109.012 31.2437 109.012 28.3357V8.69764H112.951V28.1148C112.951 33.1946 110.982 35.7529 105.902 35.7529H105.092V32.4032ZM103.141 30.213H99.2025V25.3541H89.2638C87.4049 25.4277 85.6381 24.4522 84.7546 22.8142C84.0184 21.2866 84.2393 19.4829 85.3252 18.1946L94.2147 6.50746C95.4663 4.74059 97.7485 4.0228 99.7914 4.74059C101.798 5.38476 103.16 7.26206 103.141 9.36022V21.894H105.442V25.3541H103.141V30.213ZM88.5644 20.3664C88.4172 20.5136 88.3252 20.7345 88.3252 20.9369C88.3252 21.5075 88.7853 21.9492 89.3374 21.9492H99.1657V9.36022C99.1657 8.66084 98.7055 8.43998 98.4663 8.43998H98.1166C97.7853 8.45838 97.4908 8.62403 97.3068 8.9001L88.5644 20.3664Z" fill="#868686"/>
<path d="M111 -0.357628C109.141 -0.357628 107.65 1.15157 107.65 2.99206C107.65 4.83256 109.16 6.34176 111 6.34176C112.859 6.34176 114.35 4.83256 114.35 2.99206C114.35 1.15157 112.841 -0.357628 111 -0.357628ZM16.178 23.2559C15.4602 23.2191 14.7424 23.4583 14.2086 23.9553L10.5092 21.5442C10.6013 21.2497 10.6565 20.9369 10.6381 20.624C10.6381 18.7651 9.14728 17.2559 7.28839 17.2559C5.42949 17.2559 3.92029 18.7467 3.92029 20.6056C3.92029 22.4645 5.41109 23.9737 7.26998 23.9737C7.26998 23.9737 7.26998 23.9737 7.28839 23.9737C8.00618 24.0105 8.72397 23.7712 9.25771 23.2743L12.9571 25.8141C12.8651 26.1086 12.8283 26.4215 12.8467 26.7344C12.8283 27.0473 12.8651 27.3602 12.9571 27.6546L9.25771 30.2129C8.70556 29.7528 8.00618 29.5135 7.28839 29.5135C5.42949 29.5135 3.93869 31.0227 3.93869 32.8632C3.93869 34.7221 5.4479 36.2129 7.28839 36.2129C9.12888 36.2129 10.6381 34.7037 10.6381 32.8632C10.6565 32.5504 10.6197 32.2375 10.5092 31.943L14.2086 29.4031C14.7608 29.8632 15.4602 30.1025 16.178 30.1025C18.0184 30.1025 19.5276 28.6117 19.5276 26.7528C19.5276 26.7528 19.5276 26.7528 19.5276 26.7344C19.5461 24.8571 18.0553 23.3111 16.178 23.2559Z" fill="#B9B9B9"/>
</g>
<defs>
<clipPath id="clip0_1150_11428">
<rect width="120" height="36" fill="white"/>
</clipPath>
</defs>
</svg>
