<svg width="55" height="58" viewBox="0 0 55 58" fill="none" xmlns="http://www.w3.org/2000/svg">
<path d="M3.66247 35.3812C2.57419 31.9907 2.26027 28.412 2.88812 24.7286C3.16019 23.2008 3.57876 21.7358 4.03919 20.2499C4.03919 20.2499 6.92731 10.7693 16.7009 6.43709C16.7009 6.43709 20.0704 4.65817 25.1351 4.5326C25.1351 4.5326 24.4444 3.86289 24.0049 3.56989C21.6191 1.97933 18.0613 1.45612 15.9056 3.69546C15.2568 4.36517 14.7127 5.09767 14.1058 5.76738C13.4151 6.5208 12.578 7.14866 11.6153 7.50444C10.7781 7.81837 9.94101 7.75558 9.08294 7.90208C8.20395 8.04858 7.30403 8.36251 6.59246 8.92758C5.8181 9.55543 5.50418 10.3926 5.42046 11.3553C5.33675 12.1087 5.35768 12.8831 5.31582 13.6365C5.21118 15.8549 4.49961 16.4828 2.90905 17.7175C2.23934 18.2198 1.67427 18.8895 1.2557 19.6011C-7.56979e-06 21.8195 2.00912 24.1216 2.11377 26.361C2.1347 26.8214 2.09284 27.2818 1.92541 27.7213C1.75798 28.2027 1.42313 28.5166 1.15106 28.9143C0.774346 29.4375 0.523204 30.0653 0.627846 30.7141C0.732489 31.3629 1.06734 31.9698 1.38127 32.5349C1.9882 33.5395 2.74162 34.4394 3.5369 35.2974C3.57876 35.2974 3.62062 35.3393 3.66247 35.3812Z" fill="#868686"/>
<path d="M43.594 43.4177C48.4075 41.3248 50.4585 37.7042 50.4585 37.7042C54.9581 31.5722 53.4304 25.1053 53.4304 25.1053C50.5632 31.342 47.9471 33.0581 47.9471 33.0581C55 22.3218 47.989 15.834 47.989 15.834C50.8562 21.9451 47.0472 29.3956 47.0472 29.3956C43.8451 36.1346 39.3037 38.5413 39.3037 38.5413C44.3683 39.4831 48.0936 36.0718 48.0936 36.0718C40.8314 43.92 32.9623 43.5433 32.9623 43.5433C36.269 47.2476 41.2291 46.9337 41.2291 46.9337C34.7413 48.4614 28.6511 46.3058 23.6492 42.141C22.7074 41.3667 21.8075 40.5296 20.9703 39.6296C20.9703 39.6296 20.2169 38.8343 20.0704 38.6251L20.0495 38.6041C19.9448 42.4759 23.984 46.0756 23.984 46.0756C18.9193 43.9827 16.5963 39.4413 16.5963 39.4413C16.5963 39.4413 13.1849 33.6232 15.6545 26.9888C18.1241 20.3545 25.5955 18.9314 25.5955 18.9314C31.7694 21.9242 37.0015 22.8659 37.0015 22.8659C48.0308 24.7076 47.403 19.3081 47.403 19.3081C47.5076 14.662 40.4966 9.72286 40.4966 9.72286C28.0023 0.451549 16.7009 6.43709 16.7009 6.43709C6.92732 10.7693 4.0392 20.2499 4.0392 20.2499C3.57877 21.7358 3.1602 23.2008 2.88813 24.7286C1.82078 30.9443 3.43227 36.8252 6.92732 42.0573C12.3687 50.1776 21.2005 52.982 21.2005 52.982C34.2808 57.4188 43.2173 50.8891 43.2173 50.8891C51.4422 45.2385 53.0955 38.7088 53.0955 38.7088C46.4612 43.899 43.594 43.4177 43.594 43.4177ZM33.3809 12.8831C34.0088 12.8831 34.511 13.3853 34.511 14.0132C34.511 14.641 34.0088 15.1433 33.3809 15.1433C32.753 15.1433 32.2508 14.641 32.2508 14.0132C32.2508 13.3853 32.753 12.8831 33.3809 12.8831Z" fill="#868686"/>
<path d="M47.382 19.2872C47.4867 14.641 40.4757 9.70193 40.4757 9.70193C27.9814 0.451546 16.68 6.43709 16.68 6.43709C6.9064 10.7693 4.01827 20.2499 4.01827 20.2499C3.45321 21.8614 2.95092 24.3309 2.95092 24.3309C2.344 27.4283 2.61607 30.2955 2.61607 30.2955C2.86721 33.0372 3.47413 34.8789 3.47413 34.8789C4.10199 36.8461 4.39499 37.4531 4.39499 37.4531C4.37406 37.3903 4.26942 36.9299 4.26942 36.9299C4.26942 36.9299 3.39042 32.7023 4.20663 28.6422C4.20663 28.6422 4.9182 24.4146 7.80633 21.1498C7.80633 21.1498 12.4943 14.4736 21.2215 17.0897C21.2215 17.0897 23.105 17.7594 23.7538 18.0942C24.4026 18.4082 25.5327 18.8895 25.5327 18.8895C31.7066 21.8823 36.9387 22.8241 36.9387 22.8241C48.0099 24.6867 47.382 19.2872 47.382 19.2872ZM33.3809 15.1643C32.7531 15.1643 32.2508 14.662 32.2508 14.0341C32.2508 13.4063 32.7531 12.904 33.3809 12.904C34.0088 12.904 34.511 13.4063 34.511 14.0341C34.511 14.662 34.0088 15.1643 33.3809 15.1643Z" fill="#B9B9B9"/>
<path d="M26.2234 10.8739L19.0868 8.65551C19.0449 8.65551 18.8356 8.55087 18.4589 8.65551C18.4589 8.65551 14.2523 9.72286 14.9848 12.025C14.9848 12.025 15.4243 13.4691 16.6172 14.8713L24.4654 14.4946L26.2234 10.8739Z" fill="#868686"/>
</svg>
