<svg width="130" height="65" viewBox="0 0 130 65" fill="none" xmlns="http://www.w3.org/2000/svg">
<path d="M42.4342 14.3704C41.8668 15.7311 41.1402 17.0199 40.2697 18.2098C35.0935 13.0358 27.5351 11.0457 20.4826 13.0098C13.4301 14.9738 7.97012 20.5465 6.19346 27.6467C4.41679 34.7468 6.5932 42.25 11.895 47.2983L12.6458 47.9613C15.5115 50.3749 18.9888 51.9489 22.6933 52.5092C26.3979 53.0695 30.1852 52.5943 33.6364 51.1361C37.0877 49.678 40.0684 47.2937 42.2489 44.2469C44.4295 41.2002 45.7249 37.6097 45.9919 33.8726C46.5444 28.6997 45.0277 22.1542 42.4342 14.3726V14.3704ZM14.7843 47.4143C14.3423 47.9603 13.6143 48.1867 12.9405 47.9884C12.2666 47.7902 11.7791 47.203 11.7055 46.5043C11.6318 45.8055 11.9871 45.1317 12.6046 44.7958C13.2221 44.46 13.9805 44.5315 14.5265 44.9735C15.2707 45.5769 15.3855 46.67 14.7821 47.4153L14.7843 47.4143ZM42.3486 41.3303C37.335 48.009 26.6295 45.7568 19.7644 46.0796C19.7644 46.0796 18.5478 46.1511 17.3225 46.3526C17.3225 46.3526 17.784 46.1554 18.3755 45.9333C23.1964 44.2542 25.4746 43.9324 28.4029 42.4255C33.917 39.6229 39.3695 33.4848 40.5037 27.1039C38.4064 33.2421 32.0375 38.5201 26.2395 40.664C22.2658 42.1287 15.0876 43.5543 15.0876 43.5543L14.7984 43.3994C9.91254 41.0258 9.76087 30.4482 18.6334 27.0368C22.5334 25.5385 26.2438 26.3608 30.4439 25.3576C34.9289 24.2916 40.118 20.9311 42.2305 16.5468C44.5922 23.5614 47.437 34.5302 42.3356 41.3335L42.3486 41.3303Z" fill="#868686"/>
<path d="M50.3282 39.1166C50.1268 38.9953 49.9619 38.8218 49.8511 38.6144C49.7402 38.4071 49.6875 38.1736 49.6984 37.9387C49.6964 37.7575 49.7306 37.5778 49.799 37.41C49.8675 37.2423 49.9689 37.0899 50.0971 36.962C50.2254 36.834 50.378 36.733 50.5459 36.6649C50.7138 36.5968 50.8936 36.563 51.0748 36.5655C51.33 36.5669 51.5805 36.6342 51.8022 36.7608C53.0532 37.6449 54.5364 38.1422 56.0676 38.1908C57.5262 38.1908 58.3666 37.5605 58.3666 36.584V36.5303C58.3666 35.3808 56.7907 34.9865 55.056 34.4537C52.8701 33.8234 50.4283 32.9384 50.4283 30.1067V30.0498C50.4283 27.2428 52.7564 25.5383 55.7018 25.5383C57.3194 25.5685 58.9067 25.9831 60.3325 26.7478C60.5752 26.8656 60.7799 27.0491 60.9236 27.2774C61.0672 27.5057 61.144 27.7697 61.1452 28.0394C61.1465 28.2227 61.111 28.4043 61.0407 28.5735C60.9704 28.7428 60.8668 28.8962 60.736 29.0246C60.6052 29.1529 60.45 29.2537 60.2795 29.3209C60.109 29.3881 59.9268 29.4204 59.7436 29.4157C59.5087 29.42 59.277 29.3613 59.0724 29.2458C57.8661 28.6154 56.6313 28.2347 55.6072 28.2347C54.2909 28.2347 53.5307 28.8651 53.5307 29.6932V29.7501C53.5307 30.844 55.1375 31.2939 56.8698 31.8544C59.031 32.5342 61.469 33.5082 61.469 36.173V36.2299C61.469 39.3422 59.0563 40.8835 55.9719 40.8835C53.9562 40.8696 51.9906 40.2541 50.327 39.116L50.3282 39.1166ZM62.7502 27.2533C62.7456 27.0301 62.7856 26.8081 62.868 26.6006C62.9503 26.393 63.0733 26.204 63.2298 26.0446C63.3862 25.8853 63.5729 25.7588 63.7789 25.6726C63.9849 25.5864 64.206 25.5422 64.4293 25.5427C64.6543 25.5414 64.8774 25.5847 65.0855 25.6702C65.2936 25.7557 65.4827 25.8817 65.6419 26.0408C65.801 26.1999 65.9269 26.389 66.0124 26.5971C66.0979 26.8053 66.1413 27.0283 66.14 27.2533V28.2804C67.2338 26.7367 68.7764 25.5019 71.1798 25.5019C74.645 25.5019 78.0502 28.2489 78.0502 33.1881V33.2449C78.0502 38.1519 74.6821 40.928 71.1798 40.928C68.7078 40.928 67.1628 39.6932 66.14 38.32V43.5484C66.14 43.9987 65.9611 44.4306 65.6426 44.749C65.3242 45.0675 64.8923 45.2463 64.442 45.2463C63.9917 45.2463 63.5598 45.0675 63.2413 44.749C62.9229 44.4306 62.744 43.9987 62.744 43.5484L62.7502 27.2533ZM74.616 33.2387V33.1819C74.616 30.3217 72.6785 28.4566 70.3789 28.4566C68.0793 28.4566 66.0602 30.3724 66.0602 33.1819V33.2387C66.0602 36.0735 68.0793 37.964 70.3789 37.964C72.6785 37.964 74.616 36.1557 74.616 33.2301V33.2387ZM79.3499 27.2564C79.3453 27.0329 79.3854 26.8107 79.468 26.6029C79.5505 26.3952 79.6738 26.206 79.8306 26.0466C79.9873 25.8872 80.1744 25.7608 80.3807 25.6748C80.5871 25.5887 80.8086 25.5449 81.0321 25.5458C81.2573 25.544 81.4805 25.5871 81.6888 25.6725C81.8971 25.7578 82.0864 25.8838 82.2456 26.0429C82.4048 26.2021 82.5307 26.3914 82.6161 26.5997C82.7014 26.8081 82.7445 27.0313 82.7428 27.2564V28.0722C82.9127 26.8114 84.9886 25.5519 86.4725 25.5519C86.6975 25.5361 86.9232 25.5687 87.1345 25.6476C87.3458 25.7266 87.5377 25.8499 87.6972 26.0094C87.8567 26.1689 87.9801 26.3608 88.059 26.5721C88.1379 26.7834 88.1706 27.0092 88.1547 27.2342C88.1679 27.6229 88.0384 28.0031 87.7907 28.3031C87.543 28.603 87.1942 28.802 86.8099 28.8626C84.3972 29.2816 82.7434 31.3829 82.7434 34.3153V39.1976C82.7422 39.4206 82.6969 39.6411 82.6102 39.8465C82.5234 40.0519 82.3969 40.2381 82.2379 40.3945C82.079 40.5508 81.8906 40.6742 81.6838 40.7575C81.477 40.8408 81.2557 40.8823 81.0327 40.8798C80.8114 40.8814 80.5919 40.8391 80.3871 40.7551C80.1822 40.6711 79.9961 40.5473 79.8396 40.3908C79.683 40.2342 79.5592 40.0481 79.4752 39.8433C79.3913 39.6384 79.3489 39.419 79.3505 39.1976L79.3499 27.2564ZM89.4395 27.2638C89.4353 27.0404 89.4758 26.8184 89.5585 26.6108C89.6412 26.4033 89.7645 26.2143 89.9211 26.055C90.0778 25.8956 90.2647 25.7692 90.4709 25.683C90.677 25.5969 90.8983 25.5527 91.1217 25.5532C91.3468 25.5519 91.5698 25.5952 91.7779 25.6807C91.9861 25.7662 92.1752 25.8922 92.3343 26.0513C92.4934 26.2104 92.6193 26.3995 92.7048 26.6076C92.7904 26.8158 92.8337 27.0388 92.8324 27.2638V39.2081C92.8156 39.6468 92.6296 40.062 92.3133 40.3664C91.997 40.6709 91.575 40.841 91.136 40.841C90.6969 40.841 90.275 40.6709 89.9586 40.3664C89.6423 40.062 89.4563 39.6468 89.4395 39.2081V27.2638ZM94.5461 27.27C94.5415 27.0465 94.5817 26.8243 94.6642 26.6165C94.7468 26.4088 94.87 26.2196 95.0268 26.0602C95.1835 25.9008 95.3706 25.7744 95.577 25.6884C95.7833 25.6023 96.0048 25.5585 96.2284 25.5594C96.4534 25.558 96.6764 25.6014 96.8845 25.6869C97.0927 25.7724 97.2818 25.8984 97.4409 26.0575C97.6 26.2166 97.726 26.4057 97.8115 26.6138C97.897 26.822 97.9403 27.045 97.939 27.27V27.9659C98.4329 27.195 99.1199 26.5668 99.9317 26.1435C100.743 25.7203 101.652 25.5168 102.567 25.5532C105.903 25.5532 107.84 27.7965 107.84 31.2234V39.1994C107.844 39.4214 107.803 39.6419 107.72 39.8477C107.637 40.0536 107.513 40.2405 107.356 40.3975C107.199 40.5545 107.012 40.6783 106.806 40.7614C106.6 40.8446 106.38 40.8855 106.158 40.8817C105.933 40.8875 105.71 40.8483 105.501 40.7664C105.292 40.6844 105.102 40.5614 104.941 40.4046C104.78 40.2477 104.653 40.0603 104.566 39.8533C104.479 39.6463 104.434 39.4239 104.435 39.1994V32.2678C104.435 29.9688 103.285 28.6482 101.266 28.6482C99.303 28.6482 97.9297 30.0245 97.9297 32.3241V39.1976C97.913 39.6363 97.7269 40.0515 97.4106 40.3559C97.0943 40.6604 96.6723 40.8305 96.2333 40.8305C95.7943 40.8305 95.3723 40.6604 95.056 40.3559C94.7397 40.0515 94.5536 39.6363 94.5369 39.1976L94.5461 27.27ZM122.758 25.5149C122.533 25.5135 122.31 25.5569 122.102 25.6424C121.894 25.7279 121.705 25.8539 121.546 26.013C121.387 26.1721 121.261 26.3612 121.175 26.5693C121.09 26.7775 121.046 27.0005 121.048 27.2255V28.2329C119.954 26.6891 118.411 25.4518 116.007 25.4518C112.542 25.4518 109.134 28.1989 109.134 33.1349V33.1918C109.124 38.1031 112.492 40.8749 115.998 40.8749C118.451 40.8749 119.992 39.6555 121.038 38.2885C120.868 40.9564 119.236 42.3649 116.372 42.3649C114.776 42.3809 113.205 41.9757 111.816 41.19C111.625 41.0962 111.415 41.0487 111.202 41.0516C110.828 41.0515 110.469 41.1977 110.201 41.4591C109.933 41.7204 109.778 42.0761 109.769 42.4502C109.763 42.7462 109.851 43.0366 110.021 43.2791C110.191 43.5216 110.433 43.7036 110.714 43.7987C112.492 44.6766 114.451 45.1285 116.434 45.1187C119.099 45.1187 121.174 44.4884 122.523 43.1287C123.755 41.894 124.413 40.0387 124.413 37.5469V27.2187C124.417 26.9974 124.378 26.7775 124.297 26.5716C124.216 26.3657 124.095 26.1778 123.941 26.0188C123.787 25.8598 123.603 25.7329 123.399 25.6452C123.196 25.5576 122.978 25.511 122.756 25.5081L122.758 25.5149ZM116.811 37.9418C114.483 37.9418 112.578 36.1187 112.578 33.2017V33.1448C112.578 30.2847 114.512 28.4195 116.811 28.4195C119.11 28.4195 121.13 30.3125 121.13 33.1448V33.2017C121.13 36.0334 119.114 37.9418 116.811 37.9418Z" fill="#868686"/>
<path d="M91.1378 23.1745C92.0825 23.1745 92.8484 22.4086 92.8484 21.4638C92.8484 20.519 92.0825 19.7532 91.1378 19.7532C90.193 19.7532 89.4271 20.519 89.4271 21.4638C89.4271 22.4086 90.193 23.1745 91.1378 23.1745Z" fill="#868686"/>
</svg>
